<?xml version="1.0" standalone="no"?><!DOCTYPE svg PUBLIC "-//W3C//DTD SVG 1.1//EN" "http://www.w3.org/Graphics/SVG/1.1/DTD/svg11.dtd"><svg t="1536806132830" class="icon" style="" viewBox="0 0 1024 1024" version="1.1" xmlns="http://www.w3.org/2000/svg" p-id="13197" xmlns:xlink="http://www.w3.org/1999/xlink" width="200" height="200"><defs><style type="text/css"></style></defs><path d="M436.545097 924.086857a34.377143 34.377143 0 0 1-33.938286-31.085714v-0.292572l-0.073142-63.926857L402.31424 679.716571c-0.073143-28.233143 9.947429-52.662857 31.670857-76.946285l418.157714-474.550857-744.886857 388.388571L356.23424 594.797714l-21.357714 64.146286-11.410286-3.437714L28.55424 562.176a39.131429 39.131429 0 0 1-28.379429-34.450286c-1.755429-19.017143 9.801143-37.522286 30.061715-48.274285 30.72-16.091429 895.780571-452.388571 925.257143-467.382858a45.348571 45.348571 0 0 1 9.069714-5.851428 49.737143 49.737143 0 0 1 22.674286-6.217143c5.12 0 9.874286 1.024 14.189714 3.072 27.574857 12.946286 23.113143 37.449143 20.992 49.225143l-0.731429 3.510857c-1.097143 6.948571-28.891429 145.408-87.259428 435.492571l-21.284572 105.764572-35.547428 177.152c-6.070857 31.451429-31.744 53.467429-62.610286 53.467428a63.780571 63.780571 0 0 1-17.700571-2.56c-19.602286-5.632-174.299429-52.955429-248.685715-75.702857l-40.228571-12.288-12.141714-3.876571 21.942857-64.658286 11.264 3.510857c2.56 0.804571 250.514286 76.068571 281.380571 85.577143l124.635429-620.836571-409.819429 465.334857-46.08 52.370286a48.274286 48.274286 0 0 0-9.142857 28.745142c0.512 14.336 0 201.142857 0 209.042286v0.585143a34.084571 34.084571 0 0 1-33.865143 31.158857z" fill="#666666" p-id="13198"></path></svg>