<?xml version="1.0" standalone="no"?>
<!DOCTYPE svg PUBLIC "-//W3C//DTD SVG 1.1//EN" "http://www.w3.org/Graphics/SVG/1.1/DTD/svg11.dtd" >
<!--
2013-9-30: Created.
-->
<svg>
<metadata>
Created by iconfont
</metadata>
<defs>

<font id="iconfont" horiz-adv-x="1024" >
  <font-face
    font-family="iconfont"
    font-weight="500"
    font-stretch="normal"
    units-per-em="1024"
    ascent="896"
    descent="-128"
  />
    <missing-glyph />
    
    <glyph glyph-name="xinlang" unicode="&#58958;" d="M723.776512 305.851136c-33.368064 6.457344-17.17248 24.4224-17.17248 24.4224s32.651264 53.793792-6.458368 92.900352c-48.4352 48.438272-166.1696-6.150144-166.1696-6.150144-44.951552-13.96736-33.060864 6.356992-26.704896 40.952832 0 40.749056-13.94176 109.688832-133.727232 68.965376-119.681024-40.952832-222.398464-184.44288-222.398464-184.44288-71.450624-95.336448-62.01856-169.042944-62.01856-169.042944 17.861632-162.685952 190.722048-207.328256 325.16608-217.913344 141.463552-11.099136 332.343296 48.770048 390.259712 171.731968C862.422016 250.441472 757.244928 299.186944 723.776512 305.851136zM424.749056 1.41696c-140.389376-6.561792-253.92128 63.840256-253.92128 157.558784 0 93.825024 113.531904 169.042944 253.92128 175.526912 140.544 6.458368 254.278656-51.434496 254.278656-145.052672C679.028736 95.75296 565.293056 7.799552 424.749056 1.41696zM396.76416 272.687872c-141.2608-16.502784-124.910592-148.795392-124.910592-148.795392s-1.460224-41.90208 37.85216-63.248384c82.650112-44.746752 167.734272-17.636352 210.7392 37.875712C563.447808 154.0288 538.179584 289.11488 396.76416 272.687872zM361.140224 87.037696c-26.395648-3.0976-47.616 12.09856-47.616 34.162688 0 21.962752 18.86208 44.976128 45.258752 47.719424 30.291968 2.894848 49.974272-14.582784 49.974272-36.620288C408.757248 110.308096 387.383296 90.01344 361.140224 87.037696zM444.381184 157.95072c-8.91904-6.689792-19.939328-5.766144-24.654848 2.25792-4.92032 7.815168-3.075072 20.320256 5.971968 26.882048 10.48064 7.789568 21.348352 5.559296 26.063872-2.253824C456.476672 176.840448 453.093376 164.846336 444.381184 157.95072zM792.53504 363.1296c11.377664 0 21.041152 8.431616 22.679552 19.400704 0.2048 0.8192 0.308224 1.537024 0.308224 2.459648 17.246208 155.10016-127.06304 128.395264-127.06304 128.395264-12.813312 0-23.117824-10.353664-23.117824-23.294976 0-12.736512 10.304512-23.0912 23.117824-23.0912 103.640064 22.885376 80.77824-80.779264 80.77824-80.779264C769.238016 373.40544 779.695104 363.1296 792.53504 363.1296zM775.697408 633.835264c-49.871872 11.686912-101.203968 1.589248-115.581952-1.152-1.127424-0.1024-2.153472-1.153024-3.177472-1.358848-0.515072-0.1024-0.821248-0.615424-0.821248-0.615424-14.14656-3.997696-24.5248-17.119232-24.5248-32.649216 0-18.45248 14.99136-33.675264 33.649664-33.675264 0 0 18.195456 2.459648 30.49472 7.277568 12.20096 4.92032 115.582976 3.64032 166.890496-82.572288 28.035072-62.891008 12.326912-105.022464 10.35264-111.789056 0 0-6.663168-16.350208-6.663168-32.444416 0-18.553856 15.015936-30.240768 33.57184-30.240768 15.506432 0 28.548096 2.101248 32.342016 28.343296l0.2048 0C987.538432 526.660352 864.984064 612.974336 775.697408 633.835264z"  horiz-adv-x="1024" />

    
    <glyph glyph-name="prev" unicode="&#58913;" d="M704.3-155.91l98.791 92.939zM803.091-62.972l-375.23 350.97 378.17 350.018-99.801 93.89-470.475-442.656 468.545-445.162z"  horiz-adv-x="1024" />

    
    <glyph glyph-name="add" unicode="&#58911;" d="M1024 361.4 573.4 361.4 573.4 812 450.88 812 450.88 361.4 0 361.4 0 238.88 450.88 238.88 450.88-212 573.4-212 573.4 238.88 1024 238.88Z"  horiz-adv-x="1024" />

    
    <glyph glyph-name="qq" unicode="&#58984;" d="M873.472 27.52c-12.608-1.6-39.36 24-59.648 74.112-13.888-53.76-40.896-99.136-76.992-134.528 43.776-11.648 73.472-34.112 73.472-60.032 0-37.888-63.36-68.48-141.504-68.48-58.624 0-109.12 17.344-130.432 42.112-8.896-0.768-17.856-1.152-26.88-1.152-10.496 0-20.864 0.64-31.104 1.472-21.12-24.896-71.744-42.496-130.816-42.496-78.080 0-141.376 30.656-141.376 68.48 0 26.88 32.064 50.112 78.784 61.376-36.032 35.52-63.040 80.64-77.056 133.504-20.224-50.496-47.040-76.48-59.584-74.88-16.256 2.112-32.512 52.224-23.552 128 5.952 50.752 34.112 112.832 62.4 133.376-0.128 5.76 0 11.712 0.704 17.792 5.312 47.232 12.992 88.96 32.704 93.12-3.392 17.216-5.248 34.88-5.248 52.864 0 157.504 136.768 285.184 294.208 285.184 157.44 0 294.208-127.68 294.208-285.184 0-18.176-1.856-35.968-5.376-53.184 0.128 0 0.256 0.064 0.384 0.064 16.256-1.088 30.4-43.136 35.904-93.184 0.768-6.592 0.896-12.928 0.64-19.136 27.52-22.592 54.144-82.24 59.904-131.2 8.896-75.776-7.488-126.016-23.744-128z"  horiz-adv-x="1024" />

    
    <glyph glyph-name="search" unicode="&#58905;" d="M1014.787686-142.579931l-256.085446 256.082376c59.289338 72.730465 94.913697 165.459403 94.913697 266.577405 0 233.178737-189.001585 422.201811-422.201811 422.201811C198.255855 802.281661 9.212314 613.25961 9.212314 380.07985c0-233.138828 189.042517-422.222277 422.201811-422.222277 101.633748 0 194.85592 35.951817 267.710204 95.819322l255.918647-255.958556L1014.787686-142.579931zM431.416172 42.338662C244.848009 42.338662 93.653495 193.530107 93.653495 380.07985c0 186.54872 151.193491 337.78212 337.761654 337.78212 186.525184 0 337.761654-151.234423 337.761654-337.78212C769.177825 193.530107 617.941356 42.338662 431.416172 42.338662z"  horiz-adv-x="1024" />

    
    <glyph glyph-name="notice" unicode="&#58953;" d="M510.368-43.104c-21.728 0-43.712 15.104-71.52 38.72l-189.472 157.472L163.552 153.088C108.672 153.12 64 197.76 64 252.672l0 263.104c0 54.88 44.672 99.552 99.552 99.552l85.824 0 189.376 157.376c27.904 23.968 49.504 38.4 71.424 38.4 23.808 0 51.616-16.224 51.616-61.856l0-730.08C561.792-26.816 534.08-43.104 510.368-43.104L510.368-43.104zM163.552 548.96c-18.272 0-33.184-14.912-33.184-33.184l0-263.104c0-18.304 14.912-33.184 33.184-33.184l99.552 0c8.8 0 17.248-3.488 23.456-9.728l199.168-167.2c3.52-3.488 6.72-6.432 9.664-8.896L495.392 734.72c-2.88-2.432-6.176-5.376-9.728-8.928l-199.104-167.104c-6.208-6.24-14.656-9.728-23.456-9.728L163.552 548.96 163.552 548.96zM677.504 157.76c-6.688 0-13.472 2.016-19.328 6.24-14.88 10.688-18.272 31.424-7.616 46.336l13.152 17.984c34.336 46.56 64 86.816 64 155.904 0 71.584-26.272 106.336-59.584 150.304-5.888 7.744-11.744 15.552-17.568 23.616-10.688 14.88-7.296 35.616 7.616 46.336 14.912 10.752 35.616 7.296 46.336-7.616 5.44-7.616 11.04-15.008 16.544-22.304 35.904-47.456 72.992-96.512 72.992-190.368 0-90.88-40.832-146.336-76.896-195.296l-12.672-17.344C698.016 162.528 687.84 157.76 677.504 157.76L677.504 157.76zM790.4 45.088c-7.776 0-15.584 2.72-21.856 8.224-13.76 12.064-15.168 33.056-3.104 46.816 66.592 75.968 128.192 162.88 128.192 284.064 0 121.184-61.6 208.128-128.192 284.032-12.064 13.792-10.688 34.752 3.104 46.848 13.696 12.096 34.688 10.72 46.816-3.04 71.52-81.6 144.64-184.32 144.64-327.84 0-143.52-73.152-246.272-144.64-327.808C808.736 48.896 799.584 45.088 790.4 45.088L790.4 45.088zM790.4 45.088"  horiz-adv-x="1024" />

    
    <glyph glyph-name="close" unicode="&#60125;" d="M809.984 621.994667l-237.994667-237.994667 237.994667-237.994667-59.989333-59.989333-237.994667 237.994667-237.994667-237.994667-59.989333 59.989333 237.994667 237.994667-237.994667 237.994667 59.989333 59.989333 237.994667-237.994667 237.994667 237.994667z"  horiz-adv-x="1024" />

    
    <glyph glyph-name="huifu" unicode="&#58970;" d="M307.966 486.044c-29.309 0-52.657-23.71-52.657-52.657 0-29.309 23.376-52.657 52.657-52.657 28.949 0 52.287 23.376 52.287 52.657 0 28.949-23.376 52.657-52.287 52.657zM522.834 486.044c-28.949 0-52.287-23.71-52.287-52.657 0-29.309 23.376-52.657 52.287-52.657 29.309 0 52.657 23.376 52.657 52.657 0 28.949-23.376 52.657-52.657 52.657zM738.031 486.044c-28.949 0-52.287-23.71-52.287-52.657 0-29.309 23.376-52.657 52.287-52.657 29.309 0 52.657 23.376 52.657 52.657 0 28.949-23.376 52.657-52.657 52.657zM230.538 736.085h588.057c61.695 0 112.339-50.566 112.339-112.339v-345.214c0-62.069-50.566-112.339-112.339-112.339h-588.057c-8.387 0-16.396-3.114-22.29-9.058l-89.997-85.766v552.444c0 61.695 50.566 112.339 112.339 112.339zM86.131-36.457c8.034 0 16.043 3.114 21.932 9.058l135.293 129.007h575.073c97.27 0 176.858 79.134 176.858 176.858v345.214c0 97.27-79.501 176.858-176.858 176.858h-588.057c-97.687 0-176.858-79.501-176.858-176.858v-627.824c0-13.25 7.677-24.826 19.515-30.009 4.151-1.743 8.387-2.407 12.881-2.407z"  horiz-adv-x="1024" />

    
    <glyph glyph-name="next1" unicode="&#59149;" d="M332.312548-67.930903l410.713152 400.309198 51.429323 49.678446L332.778152 835.930903l-103.234199-99.809193 359.558076-353.432565L229.543953 32.326499 332.312548-67.930903 332.312548-67.930903zM332.312548-67.930903"  horiz-adv-x="1024" />

    
    <glyph glyph-name="anzhuo" unicode="&#59091;" d="M828.117309 265.109003C828.117309 230.29514 856.46175 201.159476 891.135984 201.159476 926.322187 201.159476 954.154658 230.29514 954.154658 265.109003 954.154658 265.109003 954.154658 511.598589 954.154658 511.598589 954.154658 546.924419 926.322187 574.989604 891.135984 574.989604 856.46175 574.989604 828.117309 546.924419 828.117309 511.598589 828.117309 511.598589 828.117309 265.109003 828.117309 265.109003 828.117309 265.109003 828.117309 265.109003 828.117309 265.109003ZM602.851146 720.574843C602.851146 737.237092 617.000096 750.734445 633.801972 750.734445 651.162361 750.734445 665.31131 737.237092 665.31131 720.574843 665.31131 703.447168 651.162361 689.903272 633.801972 689.903272 617.000096 689.903272 602.851146 703.447168 602.851146 720.574843 602.851146 720.574843 602.851146 720.574843 602.851146 720.574843ZM363.389492 720.574843C363.389492 737.237092 377.026473 750.734445 393.82835 750.734445 411.188738 750.734445 424.825718 737.237092 424.825718 720.574843 424.825718 703.447168 411.188738 689.903272 393.82835 689.903272 377.026473 689.903272 363.389492 703.447168 363.389492 720.574843 363.389492 720.574843 363.389492 720.574843 363.389492 720.574843ZM233.675278 121.61818C233.675278 94.576933 255.2245 72.748455 283.056973 72.748455 283.056973 72.748455 338.721916 72.748455 338.721916 72.748455 338.721916 72.748455 338.721916-64.552202 338.721916-64.552202 338.721916-98.854095 365.995878-127.98976 401.740591-127.98976 435.856313-127.98976 464.712723-98.854095 464.712723-64.552202 464.712723-64.552202 464.712723 72.748455 464.712723 72.748455 464.712723 72.748455 562.405631 72.748455 562.405631 72.748455 562.405631 72.748455 562.405631-64.552202 562.405631-64.552202 562.405631-98.854095 589.167624-127.98976 624.912337-127.98976 660.098539-127.98976 687.931011-98.854095 687.931011-64.552202 687.931011-64.552202 687.931011 72.748455 687.931011 72.748455 687.931011 72.748455 743.595956 72.748455 743.595956 72.748455 771.381886 72.748455 792.931107 94.576933 792.931107 121.61818 792.931107 121.61818 792.931107 573.453699 792.931107 573.453699 792.931107 573.453699 233.675278 573.453699 233.675278 573.453699 233.675278 573.453699 233.675278 121.61818 233.675278 121.61818 233.675278 121.61818 233.675278 121.61818 233.675278 121.61818ZM791.90717 612.968362C783.48296 698.234397 726.747536 769.491111 644.832568 806.911358 644.832568 806.911358 696.308679 881.239883 696.308679 881.239883 699.706288 886.126855 698.961606 892.177393 694.726231 894.271809 690.537396 896.831652 685.836595 895.295746 682.113187 891.153456 682.113187 891.153456 628.030691 814.172003 628.030691 814.172003 591.820551 827.157387 553.469452 835.488511 512 835.488511 470.530548 835.488511 431.108969 827.157387 395.410798 814.172003 395.410798 814.172003 342.398782 891.153456 342.398782 891.153456 338.721916 895.295746 333.974572 897.902133 329.785738 894.271809 325.596905 891.665424 324.293712 886.126855 327.691321 881.239883 327.691321 881.239883 379.6794 806.911358 379.6794 806.911358 297.764432 768.420631 240.005071 698.746366 232.651341 612.968362 232.651341 612.968362 791.90717 612.968362 791.90717 612.968362 791.90717 612.968362 791.90717 612.968362 791.90717 612.968362ZM69.845342 265.109003C69.845342 230.29514 97.165845 201.159476 132.864016 201.159476 166.979739 201.159476 195.882691 230.29514 195.882691 265.109003 195.882691 265.109003 195.882691 511.598589 195.882691 511.598589 195.882691 546.924419 166.979739 574.989604 132.864016 574.989604 97.165845 574.989604 69.845342 546.924419 69.845342 511.598589 69.845342 511.598589 69.845342 265.109003 69.845342 265.109003 69.845342 265.109003 69.845342 265.109003 69.845342 265.109003Z"  horiz-adv-x="1024" />

    
    <glyph glyph-name="weixin" unicode="&#58963;" d="M676.4738758659612 542.9845640352734c10.802496693373646 0 21.458219537414962-0.7338651186696901 32.02587889745527-1.878694538674729-28.767517605442173 127.98609692315443-172.07671956865707 223.0656759808516-335.6406033479465 223.0656759808516-182.84986107936507 0-332.6464325079365-119.03294061778784-332.6464325079365-270.1504694663643 0-87.2418990536659 49.84412699218946-158.86714536860666 133.12315378584026-214.43542152481731L140.0770998599143 184.06575594457058l116.30296229377676 55.68569379087931c41.59548165482488-7.867035186696899 75.00102730561854-15.939552524061476 116.50844444444442-15.939552524061476 10.450240693373646 0 20.783063752078608 0.49902881733434107 31.05717644545225 1.2622480866717056-6.516723616024186 21.22338220408163-10.27411372537163 43.47417619349961-10.27411372537163 66.54689981758628C393.6715693182162 430.38028251751075 518.4873684333585 542.9845640352734 676.4738758659612 542.9845640352734zM497.61624119727895 629.1109878196019c25.039481646762404 0 41.62483580549256-15.734070373393799 41.62483580549256-39.658076750818836 0-23.806587710758375-16.585354158730155-39.74614126681784-41.62483580549256-39.74614126681784-24.92206298009574 0-49.96154462685815 15.968907706727133-49.96154462685815 39.74614126681784C447.6840507210884 613.376917446208 472.6941782171832 629.1109878196019 497.61624119727895 629.1109878196019zM264.8048344590577 549.7067698019653c-24.92206298009574 0-50.10831847619047 15.968907706727133-50.10831847619047 39.74614126681784 0 23.894652226757366 25.15690031342907 39.658076750818836 50.10831847619047 39.658076750818836 24.92206298009574 0 41.536772321491554-15.734070373393799 41.536772321491554-39.658076750818836C306.34160678054934 565.6756775086924 289.7562526218191 549.7067698019653 264.8048344590577 549.7067698019653zM980.0886003164524 295.4371435263291c0 126.95868513781808-133.09379860317458 230.49239271554546-282.56746921441163 230.49239271554546-158.28005306727133 0-282.9197252144117-103.50435239506173-282.9197252144117-230.49239271554546 0-127.22287662181908 124.66902629780799-230.52174686621314 282.9197252144117-230.52174686621314 33.11199898412698 0 66.54689981758628 7.984453853363567 99.80567161904762 15.939552524061476l91.23412546434868-47.701239937515744-25.010127496094732 79.374863866969C930.3618919909296 160.3765858684808 980.0886003164524 223.81189721138833 980.0886003164524 295.4371435263291zM605.8173309710255 335.18328479314687c-16.556000008062483 0-33.28812698412698 15.734070373393799-33.28812698412698 31.79104156412194 0 15.822134889392792 16.70277282539682 31.76168741345427 33.28812698412698 31.76168741345427 25.15690031342907 0 41.65419098815822-15.939552524061476 41.65419098815822-31.76168741345427C647.4421678085159 350.9173551665408 630.9742312844545 335.18328479314687 605.8173309710255 335.18328479314687zM788.7846117490551 335.18328479314687c-16.438581341395818 0-33.053289650793644 15.734070373393799-33.053289650793644 31.79104156412194 0 15.822134889392792 16.585354158730155 31.76168741345427 33.053289650793644 31.76168741345427 24.92206298009574 0 41.65419098815822-15.939552524061476 41.65419098815822-31.76168741345427C830.4094475545476 350.9173551665408 813.7066747291508 335.18328479314687 788.7846117490551 335.18328479314687z"  horiz-adv-x="1024" />

    
    <glyph glyph-name="xihuan" unicode="&#58957;" d="M512.000512 0.58661c-13.06148 0-25.27157 5.022387-34.391275 14.142092L181.871699 300.039773c-0.419556 0.336668-114.000404 100.614535-114.000404 226.264257 0 148.719136 94.200452 241.10936 245.850337 241.10936 80.160691 0 154.449651-54.807257 198.278879-95.16236 43.828204 40.355103 118.116141 95.16236 198.277856 95.16236 151.648862 0 245.849314-92.390223 245.849314-241.10936 0-109.210307-86.964654-200.900589-113.616664-226.40445L546.136983 14.477992C537.269012 5.608997 525.059945 0.58661 512.000512 0.58661z"  horiz-adv-x="1024" />

    
    <glyph glyph-name="xiangshangfanye" unicode="&#58964;" d="M472.064 623.552l-399.232-399.232c-22.08-22.08-22.08-57.792 0-79.872 22.016-22.016 57.792-22.08 79.872 0L512 503.744l359.296-359.296c22.016-22.016 57.792-22.08 79.872 0 22.08 22.08 22.016 57.792 0 79.872L551.936 623.552C529.856 645.568 494.144 645.568 472.064 623.552z"  horiz-adv-x="1024" />

    
    <glyph glyph-name="xiangxiafanye" unicode="&#58965;" d="M472.064 144.448 72.832 543.68c-22.08 22.08-22.08 57.792 0 79.872 22.016 22.016 57.792 22.08 79.872 0L512 264.256l359.296 359.296c22.016 22.016 57.792 22.08 79.872 0 22.08-22.08 22.016-57.792 0-79.872l-399.232-399.232C529.856 122.432 494.144 122.432 472.064 144.448z"  horiz-adv-x="1024" />

    
    <glyph glyph-name="back" unicode="&#58967;" d="M877.216 404.192M758.528-53.984c12.512 12.512 13.248 31.872 2.048 43.776L384.096 366.304c-16.16 15.328-16.096 19.328 0 35.424L760.576 778.176c11.232 11.872 10.464 31.264-2.048 43.776-12.736 12.736-32.608 13.44-44.448 1.632L295.872 405.408C290.72 400.256 288.416 393.536 288 386.624l0-5.248c0.448-6.944 2.752-13.632 7.872-18.784l418.176-418.176C725.92-67.392 745.824-66.688 758.528-53.984z"  horiz-adv-x="1024" />

    
    <glyph glyph-name="right" unicode="&#58968;" d="M877.216 404.192M297.952-53.984c-12.512 12.512-13.248 31.872-2.048 43.776l376.48 376.512c16.16 15.328 16.096 19.328 0 35.424L295.904 778.176C284.672 790.08 285.44 809.44 297.952 821.952c12.736 12.736 32.608 13.44 44.448 1.632l418.176-418.176c5.152-5.152 7.456-11.84 7.872-18.784l0-5.248c-0.448-6.944-2.752-13.632-7.872-18.784L342.4-55.616C330.56-67.392 310.656-66.688 297.952-53.984z"  horiz-adv-x="1024" />

    
    <glyph glyph-name="jiantou" unicode="&#59305;" d="M0 323.85024h695.07584v-240.39936l324.80256 299.66848-324.80256 299.71456V442.4704H0v-118.62016z"  horiz-adv-x="1025" />

    
    <glyph glyph-name="gaojisousuo" unicode="&#58938;" d="M379.904 707.366788C361.347879 699.454061 344.622545 690.331152 328.486788 679.687758c-15.825455-10.953697-31.030303-23.427879-44.435394-37.112242l0 0 0 0C269.746424 628.580848 257.551515 613.376 246.908121 597.550545l0 0c-10.953697-15.825455-20.386909-33.450667-27.67903-51.106909-5.802667-13.374061 0.620606-27.989333 13.684364-33.450667 12.784485-5.492364 27.989333 0.620606 33.481697 13.374061 6.081939 14.584242 13.994667 29.199515 23.117576 42.573576l0 0c9.122909 13.374061 19.176727 26.158545 30.440727 37.112242 11.543273 11.543273 24.017455 21.907394 37.422545 31.030303 13.684364 9.122909 27.67903 16.725333 42.294303 23.117576 13.405091 5.461333 19.48703 20.076606 14.025697 33.450667C408.203636 706.466909 392.998788 712.828121 379.904 707.366788L379.904 707.366788zM1041.718303-54.30303 1041.718303-54.30303l-185.31297 184.630303c30.130424 36.212364 54.458182 76.055273 72.73503 119.83903 23.117576 55.358061 35.312485 115.587879 35.312485 178.858667 0 62.060606-12.194909 121.669818-34.691879 176.128l-0.620606 2.141091c-23.148606 56.257939-57.188848 106.744242-99.203879 149.659152l-2.451394 2.141091c-42.604606 42.883879-94.332121 77.575758-151.552 101.282909l0 0 0 0C620.885333 883.184485 560.345212 895.658667 497.353697 895.658667c-128.713697 0-245.573818-52.317091-330.162424-136.595394C124.276364 716.179394 89.305212 664.482909 65.877333 607.294061 43.03903 552.246303 30.564848 492.295758 30.564848 429.02497c0-62.681212 12.474182-122.290424 34.381576-176.438303l0.899879-2.451394c23.427879-56.568242 58.39903-108.295758 101.313939-151.179636l0 0c43.225212-43.194182 94.952727-77.886061 151.552-101.282909l0.620606 0c54.768485-23.117576 115.029333-35.591758 177.989818-35.591758 63.581091 0 123.531636 12.474182 178.610424 35.591758 43.814788 17.625212 84.309333 42.604606 119.901091 72.393697l185.623273-185.561212c16.41503-16.41503 43.814788-16.41503 60.229818 0.620606C1058.474667-98.117818 1058.164364-71.028364 1041.718303-54.30303L1041.718303-54.30303zM767.255273 159.526788 767.255273 159.526788l0-0.310303-0.620606-0.620606c-34.971152-34.660848-76.675879-62.960485-123.221333-81.826909-44.745697-18.866424-94.021818-29.199515-146.090667-29.199515-51.727515 0-101.034667 10.333091-145.749333 29.199515l0 0c-46.855758 18.866424-88.560485 47.445333-123.531636 82.416485l-0.310303 0.310303 0.310303 0c-35.312485 34.971152-63.922424 77.265455-83.409455 123.810909l-0.620606 2.110061c-17.935515 43.814788-27.989333 92.470303-27.989333 143.577212 0 51.727515 10.053818 100.972606 28.578909 145.718303 19.48703 45.924848 48.065939 88.529455 83.409455 123.810909 68.763152 68.763152 164.305455 111.64703 269.28097 111.64703 52.037818 0 101.34497-10.333091 146.090667-28.889212 46.545455-18.866424 88.560485-47.445333 123.841939-82.757818l2.451394-1.830788c33.76097-34.971152 61.47103-76.055273 80.337455-121.980121l1.241212-2.141091c17.345939-43.814788 27.989333-92.780606 27.989333-143.577212 0-52.006788-10.643394-101.282909-29.199515-145.687273C831.177697 236.792242 802.567758 194.497939 767.255273 159.526788L767.255273 159.526788zM773.957818 454.593939 773.957818 454.593939c-13.994667 0-25.56897-11.543273-25.56897-25.537939 0-32.861091-6.081939-65.691152-18.866424-96.131879l-0.620606-1.210182c-12.474182-28.609939-29.820121-56.28897-54.178909-79.716848-23.738182-24.327758-51.727515-42.573576-81.237333-54.737455-30.409697-12.784485-62.991515-18.866424-96.162909-18.866424-14.30497 0-25.227636-11.543273-25.227636-25.848242s10.953697-25.848242 25.227636-25.848242c39.873939 0 78.81697 7.912727 115.929212 23.117576 35.902061 14.615273 69.383758 36.491636 97.993697 65.722182 28.609939 28.578909 50.20703 61.44 65.132606 96.721455l0 0.899879c15.794424 37.112242 23.738182 76.955152 23.738182 115.898182C800.147394 443.019636 788.262788 454.593939 773.957818 454.593939L773.957818 454.593939z"  horiz-adv-x="1056" />

    
    <glyph glyph-name="card" unicode="&#58943;" d="M302.278005 155.244929M43.694214 136.723494M937.941841-74.891576 133.026881-74.891576c-73.369441 0-133.026881 59.65744-133.026881 133.026881l0 550.117318c0 73.369441 59.65744 133.026881 133.026881 133.026881l804.91496 0c73.369441 0 133.026881-59.65744 133.026881-133.026881l0-550.117318C1070.968722-15.234136 1011.208954-74.891576 937.941841-74.891576zM133.026881 679.882482c-39.498751 0-71.629859-32.131108-71.629859-71.629859l0-550.117318c0-39.498751 32.131108-71.629859 71.629859-71.629859l804.91496 0c39.498751 0 71.629859 32.131108 71.629859 71.629859l0 550.117318c0 39.498751-32.131108 71.629859-71.629859 71.629859L133.026881 679.882482zM30.698511 529.664435l991.561907 0 0-138.961927-991.561907 0 0 138.961927ZM805.938243 122.909164l-89.025682 0c-22.61457 0-40.931348 18.316778-40.931348 40.931348l0 83.090637c0 22.61457 18.316778 40.931348 40.931348 40.931348l89.025682 0c22.61457 0 40.931348-18.316778 40.931348-40.931348l0-83.090637C846.869591 141.32827 828.552813 122.909164 805.938243 122.909164z"  horiz-adv-x="1071" />

    
    <glyph glyph-name="gongzhonghao" unicode="&#58986;" d="M599.894358 557.330132c-34.420168 0-71.913565 23.971188-72.528212 62.079232 0 38.108043 37.493397 62.079232 72.528212 62.079231 36.878752 0 62.079232-25.815126 62.079231-62.079231 0-36.878752-25.815126-62.079232-62.079231-62.079232zM599.894358 570.237695c29.503001 0 49.171669 19.668667 49.171668 49.171669s-19.668667 49.171669-49.171668 49.171668-59.006002-19.054022-59.006003-49.171668c0-29.503001 29.503001-49.171669 59.006003-49.171669zM324.533013 557.330132c-35.034814 0-72.528211 23.971188-72.528211 62.079232 0 38.108043 37.493397 62.079232 72.528211 62.079231 36.264106 0 62.079232-25.815126 62.079232-62.079231 0-36.878752-25.815126-62.079232-62.079232-62.079232zM324.533013 668.581032c-29.503001 0-59.620648-19.054022-59.620648-49.171668 0-29.503001 30.117647-49.171669 59.620648-49.171669 29.503001 0 49.171669 19.668667 49.171669 49.171669s-19.668667 49.171669-49.171669 49.171668zM1062.108043-100.340936c-4.917167 0-10.44898 1.229292-14.7515 3.687875l-97.114046 53.474189c-38.108043-9.219688-75.601441-17.82473-113.709484-17.824729-149.973589 0-283.966387 79.289316-339.284514 199.145258-1.843938-0.614646-3.687875-0.614646-4.917166-0.614646-12.907563-1.229292-26.429772-1.843938-39.337335-1.843938-44.254502 0-79.903962 7.37575-121.085234 15.980793l-12.292918 2.458583-127.846338-63.923169c-4.302521-2.458583-9.219688-3.073229-14.136855-3.07323-7.37575 0-14.751501 2.458583-20.283313 7.375751-9.219688 7.990396-12.907563 21.512605-9.219688 33.190876l31.961584 97.114046c-99.572629 75.601441-151.817527 171.486194-151.817527 277.205282 0 201.603842 190.540216 365.714286 424.105643 365.714286 205.291717 0 387.841537-127.846339 426.564225-297.488596 181.935174-19.054022 322.689076-154.890756 322.689076-314.084034 0-83.591837-47.327731-167.798319-132.763505-237.867947l23.356542-78.060024c3.687875-12.292917-0.614646-25.20048-10.448979-33.190876-5.531813-4.917167-12.907563-7.37575-19.668668-7.37575z m-108.177671 121.085234c4.917167 0 10.44898-1.229292 14.751501-3.687875l41.795918-22.741897-7.990396 25.815126c-3.687875 12.292917 0.614646 25.815126 11.063625 33.805522 81.133253 60.84994 125.387755 132.14886 125.387756 201.603842 0 137.680672-138.909964 254.463385-303.020409 254.463385-167.183673 0-303.635054-114.32413-303.635054-254.463385 0-140.139256 136.451381-254.463385 303.635054-254.463386 36.264106 0 73.757503 9.219688 110.636255 18.439376 2.458583 0.614646 4.917167 1.229292 7.37575 1.229292z m-501.55102 784.288115c-199.759904 0-362.641056-136.451381-362.641057-303.635054 0-92.811525 48.557023-173.330132 144.441777-240.326531 11.063625-7.990396 15.980792-22.127251 11.678271-35.034814l-15.980792-47.327731 70.684274 35.64946c4.302521 1.843938 9.219688 3.073229 13.522209 3.073229 1.843938 0 4.302521 0 6.146458-0.614645l22.127251-4.302521c38.108043-7.990396 70.684274-14.751501 109.406963-14.751501 7.990396 0 16.595438 0 24.585834 0.614646-4.302521 19.054022-6.146459 38.722689-6.146458 57.162065 0 167.183673 152.432173 305.478992 343.587034 315.927971-39.337335 133.992797-191.769508 233.565426-361.411764 233.565426zM1188.110444 255.539016c0 155.505402-144.441777 288.268908-321.459784 301.791116 0 1.843938 0.614646 3.687875 0 6.146459-35.64946 165.339736-213.896759 290.727491-414.271308 290.727491-226.804322 0-411.198079-157.963986-411.198079-352.192077 0-104.489796 53.47419-198.530612 154.27611-272.288115l-35.034814-105.719088c-2.458583-6.761104 0-14.751501 5.531813-19.054022 3.073229-3.073229 7.37575-4.302521 11.678271-4.302521 2.458583 0 5.531813 0.614646 7.990396 1.843938l132.14886 65.767107 15.980792-3.07323c40.566627-8.605042 75.601441-15.366146 119.241297-15.366146 12.907563 0 25.815126 0.614646 38.108043 1.843938 4.917167 0.614646 9.219688 3.073229 12.292917 6.761104 47.327731-119.241297 178.861945-205.291717 333.138055-205.291717 39.337335 0 79.289316 9.834334 115.553422 18.439376l102.031212-55.932773c2.458583-1.229292 5.531813-2.458583 8.605042-2.458583 4.302521 0 7.990396 1.229292 11.063626 3.687875 5.531813 4.302521 7.990396 12.292917 6.146458 19.054021l-25.815126 86.665066c86.05042 68.22569 133.992797 150.588235 133.992797 232.950781z m-700.696278-69.454982c-11.678271-1.229292-23.356543-1.229292-35.034814-1.229292-39.337335 0-73.142857 6.761104-111.865546 14.7515l-22.741897 4.302522c-3.687875 0.614646-7.990396 0-11.678272-1.843938l-98.957983-49.786315 25.815126 77.445379c2.458583 7.37575 0 15.980792-6.761104 20.283313-99.572629 69.454982-149.973589 153.661465-149.97359 250.77551 0 174.559424 168.412965 316.542617 375.54862 316.542617 183.164466 0 344.816327-111.2509 378.621849-259.380552-191.769508-2.458583-347.27491-137.680672-347.27491-303.020408 0-23.971188 3.687875-47.327731 9.834333-70.069628-1.229292 1.229292-3.073229 1.229292-5.531812 1.229292z m534.127251-143.212485c-6.146459-4.302521-8.605042-12.292917-6.146459-19.668668l17.210084-56.547419-69.454982 38.108043c-2.458583 1.229292-5.531813 2.458583-8.605042 2.458584-1.229292 0-3.073229 0-4.302521-0.614646-37.493397-9.219688-76.216086-19.054022-113.709484-19.054022-174.559424 0-316.542617 119.855942-316.542617 267.370949s141.983193 267.370948 316.542617 267.370948c171.486194 0 315.927971-122.314526 315.927971-267.370948 0-73.142857-46.713085-148.744298-130.919567-212.052821zM727.740696 291.188475c-27.044418 0-52.244898 25.20048-52.244898 52.244898s25.20048 52.244898 52.244898 52.244898c38.108043 0 62.079232-27.044418 62.079232-52.244898 0-31.961585-31.961585-52.244898-62.079232-52.244898zM727.740696 383.385354c-19.668667 0-39.337335-19.668667-39.337335-39.337335s19.668667-39.337335 39.337335-39.337335c29.503001 0 49.171669 19.668667 49.171669 39.337335 0 19.054022-19.668667 39.337335-49.171669 39.337335zM944.096038 291.188475c-27.044418 0-52.244898 25.20048-52.244898 52.244898s25.20048 52.244898 52.244898 52.244898c38.722689 0 62.693878-27.044418 62.693878-52.244898-0.614646-25.20048-24.585834-52.244898-62.693878-52.244898zM944.096038 383.385354c-19.668667 0-39.337335-19.668667-39.337335-39.337335s19.668667-39.337335 39.337335-39.337335c29.503001 0 49.171669 19.668667 49.171669 39.337335 0 19.054022-19.668667 39.337335-49.171669 39.337335z"  horiz-adv-x="1229" />

    
    <glyph glyph-name="wode_fabu" unicode="&#58935;" d="M436.545097-28.086857a34.377143 34.377143 0 0 0-33.938286 31.085714v0.292572l-0.073142 63.926857L402.31424 216.283429c-0.073143 28.233143 9.947429 52.662857 31.670857 76.946285l418.157714 474.550857-744.886857-388.388571L356.23424 301.202286l-21.357714-64.146286-11.410286 3.437714L28.55424 333.824a39.131429 39.131429 0 0 0-28.379429 34.450286c-1.755429 19.017143 9.801143 37.522286 30.061715 48.274285 30.72 16.091429 895.780571 452.388571 925.257143 467.382858a45.348571 45.348571 0 0 0 9.069714 5.851428 49.737143 49.737143 0 0 0 22.674286 6.217143c5.12 0 9.874286-1.024 14.189714-3.072 27.574857-12.946286 23.113143-37.449143 20.992-49.225143l-0.731429-3.510857c-1.097143-6.948571-28.891429-145.408-87.259428-435.492571l-21.284572-105.764572-35.547428-177.152c-6.070857-31.451429-31.744-53.467429-62.610286-53.467428a63.780571 63.780571 0 0 0-17.700571 2.56c-19.602286 5.632-174.299429 52.955429-248.685715 75.702857l-40.228571 12.288-12.141714 3.876571 21.942857 64.658286 11.264-3.510857c2.56-0.804571 250.514286-76.068571 281.380571-85.577143l124.635429 620.836571-409.819429-465.334857-46.08-52.370286a48.274286 48.274286 0 0 1-9.142857-28.745142c0.512-14.336 0-201.142857 0-209.042286v-0.585143a34.084571 34.084571 0 0 0-33.865143-31.158857z"  horiz-adv-x="1024" />

    
    <glyph glyph-name="gonggao" unicode="&#58889;" d="M921.9 427.4H749.6c-9.4 0-18.4-3.8-25-10.5-6.6-6.7-10.3-15.7-10.3-25.1v-11.1c0-19.6 15.9-35.5 35.4-35.5h172.2c19.5 0 35.3 15.9 35.3 35.5v11.1c0 9.4-3.7 18.4-10.3 25.1-6.6 6.7-15.6 10.5-25 10.5zM522.4 732.1c-53.6-42.6-165.7-102.3-246.3-159.8h-0.1c-0.9-0.6-1.8-3.8-2.8-4.3-9.5-5.4-13.8-20.1-65.6-20.1h-101c-26 0-42-12.2-42-39.6V265c0-27.4 14.7-40.9 42-40.9H208c51.5-0.1 55.7-14.8 65.2-20.1 0.9-0.5 1.8-3.7 2.7-4.3h0.1c78.2-57.5 191-121.8 246.4-162.7 16.7-12.3 72.1-33.9 72.1 42.1v614c0 76.1-55.9 51.8-72.1 39z m159-167.8c9.2-16.1 27.3-20.2 40.5-9l141.5 119.3c13.3 11.1 16.5 33.2 7.4 49.4l-5.2 9.1c-9.1 16.1-27.3 20.1-40.5 9L683.6 622.8c-13.2-11.2-16.5-33.2-7.4-49.4l5.2-9.1z m40.4-347.4c-13.2 11.1-31.3 7-40.4-9l-5.2-9.1c-9.1-16.1-5.8-38.2 7.4-49.4L825.1 30c13.2-11.1 31.3-7.1 40.4 9l5.2 9.1c9.1 16.1 5.8 38.2-7.4 49.4L721.8 216.9z m0 0"  horiz-adv-x="1024" />

    
    <glyph glyph-name="sactongdao" unicode="&#58996;" d="M573.179 638.428c-1.1008 3.85024-11.4893 6.89664-23.2806 6.89664H474.102c-11.7965 0-22.185-3.04128-23.2755-6.89664l-78.4896-278.472c-6.0416-21.3965 13.0099-40.1818 43.0336-40.1818h193.28c30.0083 0 49.0496 18.7853 43.008 40.1818l-78.4794 278.472ZM511.974 883.8963c-272.901 0-494.116-220.928-494.116-493.404 0-272.522 221.215-493.404 494.116-493.404 272.906 0 494.167 220.887 494.167 493.404 0 272.476-221.261 493.404-494.167 493.404Zm267.725-691.789H244.306c-37.1866 0-52.905 28.5235-36.736 60.5286l202.767 401.485c1.664 3.328 11.863 5.94432 22.825 5.94432h157.681c10.9619 0 21.1712-2.61632 22.8301-5.94432l202.762-401.485c16.1638-32.0051 0.44544-60.5286-36.736-60.5286Z"  horiz-adv-x="1024" />

    
    <glyph glyph-name="suanlimingxi" unicode="&#58999;" d="M602.107 599.47h-39.4086c0 19.6096-22.0774 35.5482-49.2902 35.5482-27.1923 0-49.2646-15.9386-49.2646-35.5482h-39.4138v-71.0502H602.112V599.47ZM690.811 563.9680000000001h-53.207v-71.0451H389.248V563.9680000000001H336.02c-19.6096 0-35.4765-15.9386-35.4765-35.5482v-355.2a35.4816 35.4816 0 0 1 35.4765-35.5021h354.79a35.4816 35.4816 0 0 1 35.4765 35.5021V528.4200000000001c0 19.6096-15.872 35.5482-35.4765 35.5482Zm-53.207-355.2H389.248a17.7306 17.7306 0 0 0-17.751 17.7254 17.7715 17.7715 0 0 0 17.751 17.7766h248.356a17.7664 17.7664 0 0 0 17.7306-17.7766 17.7306 17.7306 0 0 0-17.7306-17.7254Zm0 88.7808H389.248c-9.8048 0-17.751 7.96672-17.751 17.7715s7.94624 17.7766 17.751 17.7766h248.356c9.7792 0 17.7306-7.97184 17.7306-17.7766s-7.95136-17.7715-17.7306-17.7715Zm0 88.8218H389.248a17.7254 17.7254 0 0 0-17.751 17.7254 17.7408 17.7408 0 0 0 17.751 17.7766h248.356a17.7357 17.7357 0 0 0 17.7306-17.7766 17.7254 17.7254 0 0 0-17.7306-17.7254ZM518.595 887.53152c-277.197 0-501.908-224.399-501.908-501.161 0-276.803 224.717-501.161 501.908-501.161 277.192 0 501.878 224.353 501.878 501.161 0.00512 276.762-224.686 501.161-501.878 501.161Zm243.19-714.312c0-39.2141-31.785-71.0451-70.9734-71.0451H336.02c-39.1936 0-70.953 31.831-70.953 71.0451V528.4200000000001c0 39.2653 31.7594 71.0502 70.953 71.0502h53.2275v35.5482h47.7696c15.3856 21.1098 43.6378 35.5021 76.3853 35.5021 32.7475 0 61.0253-14.3923 76.4058-35.5021h47.7952v-35.5482h53.207c39.1885 0 70.9734-31.785 70.9734-71.0502v-355.2Z"  horiz-adv-x="1029" />

    
    <glyph glyph-name="AW" unicode="&#59005;" d="M282.051 298.93600000000003h37.3094l-18.6573 159.345ZM508.82 874.6138c-274.55 0-497.152-222.218-497.152-496.384 0-274.12 222.602-496.348 497.152-496.348 274.514 0 497.111 222.228 497.111 496.348 0 274.166-222.597 496.384-497.111 496.384ZM330.67 202.327l-6.28224 53.6627h-47.3651l-6.28224-53.6627H179.497l42.9363 366.751H378.972l42.9363-366.751h-91.2384Zm466.043 0H664.509l-10.0198 116.716-10.025-116.716H507.786l-42.9363 366.751h91.2384l30.5562-260.966 22.4 260.966H699.93l20.5107-238.93 27.9757 238.93h91.2486l-42.9517-366.751Z"  horiz-adv-x="1024" />

    
    <glyph glyph-name="xiaoxi" unicode="&#59009;" d="M830.976 764.4159999999999h-637.44a87.552 87.552 0 0 1-87.552-93.184v-467.456a82.432 82.432 0 0 1 87.552-87.04h186.88l111.616-108.544a30.72 30.72 0 0 1 22.016-9.216 31.232 31.232 0 0 1 22.016 9.216l109.568 108.544h185.344a82.432 82.432 0 0 1 87.04 87.04V671.232a87.552 87.552 0 0 1-87.04 93.184z m25.088-563.2c0-17.92-7.168-25.088-25.088-25.088H632.32a30.72 30.72 0 0 1-22.016-9.216L512 73.72799999999995l-97.28 95.744a30.72 30.72 0 0 1-22.528 9.728H193.536c-17.92 0-25.6 7.168-25.6 25.088V671.232c0 9.216 0 31.232 25.6 31.232h637.44c22.528 0 25.088-22.016 25.088-31.232v-467.456z m0 0M269.824 443.904a54.784 54.784 0 1 1 55.296 54.784 54.784 54.784 0 0 1-55.296-54.784z m195.584 0a54.784 54.784 0 1 1 54.784 54.784 54.784 54.784 0 0 1-54.272-54.784z m194.56 0A54.784 54.784 0 1 1 716.8 499.2a54.784 54.784 0 0 1-56.32-54.784z m0 0"  horiz-adv-x="1024" />

    
    <glyph glyph-name="zhuanbi" unicode="&#59010;" d="M476.646 306.529v25.1699a381.21 381.21 0 0 0-15.8106 2.62144v-25.4976a384.973 384.973 0 0 1 15.8106-2.29376ZM524.037 303.048v24.3507a466.35 466.35 0 0 0-31.5955 2.3296v-24.8678c10.0096-0.86016 20.5926-1.4592 31.5955-1.81248ZM539.832 327.009v-24.2125c1.3312-0.02048 2.62144-0.06144 3.95776-0.06144 9.5488 0 18.7085 0.25088 27.648 0.64v24.3917a489.052 489.052 0 0 0-27.648-0.80896c-1.32096 0-2.65216 0.03072-3.95776 0.0512ZM413.425 321.44899999999995v25.7792a145.49 145.49 0 0 0-7.88992 3.2512v-25.4003c2.45248-1.25952 5.0944-2.44736 7.88992-3.63008ZM445.036 311.869v25.769a284.989 284.989 0 0 0-15.8003 4.18816v-25.9379c4.92032-1.4592 10.2246-2.7904 15.8003-4.0192ZM381.829 353.408c0-6.23104 2.81088-11.9501 7.89504-17.1981v22.6202a82.7085 82.7085 0 0 0-7.89504 5.67808v-11.1002ZM389.724 431.058a188.375 188.375 0 0 0-7.89504 3.26144v-25.3798c2.45248-1.26976 5.09952-2.47808 7.89504-3.65056v25.769ZM626.749 308.818v25.4976a416.061 416.061 0 0 0-39.5213-5.38112v-24.6579c14.2029 1.03424 27.433 2.54464 39.5213 4.54144ZM563.538 219.361c14.1875 1.01888 27.4176 2.53952 39.511 4.55168v25.4925a430.387 430.387 0 0 0-39.511-5.4016v-24.6426ZM618.849 226.94899999999995c5.57056 1.2288 10.8698 2.56 15.7901 3.99872v25.9686c-5.05856-1.5104-10.3578-2.89792-15.7901-4.18816v-25.7792ZM658.345 315.889v25.9379c-5.05856-1.52064-10.3526-2.88768-15.7952-4.18816v-25.769c5.57056 1.2288 10.8749 2.56 15.7952 4.0192ZM650.46 236.529c2.79552 1.1776 5.43744 2.3808 7.8848 3.65056v25.3696a213.35 213.35 0 0 0-7.8848-3.24096v-25.7792ZM405.535 425.677v-25.943c4.9152-1.47968 10.2195-2.80064 15.7952-4.02944V421.478a275.983 275.983 0 0 0-15.7952 4.1984ZM674.145 251.29999999999995c5.07904 5.248 7.9104 10.9824 7.9104 17.1981v11.1206c-2.41152-1.98144-5.05856-3.87072-7.9104-5.7088v-22.6099ZM674.145 321.44899999999995c2.81088 1.1776 5.45792 2.37056 7.9104 3.63008v25.4003c-2.54976-1.12128-5.19168-2.23232-7.9104-3.2512v-25.7792ZM382.085 395.151c-0.11776-0.70144-0.256-1.38752-0.256-2.07872 0-23.9718 66.5037-50.6522 161.961-50.6522 95.4419 0 161.956 26.6803 161.956 50.6522 0 7.35232-6.38976 14.9248-17.8125 21.9136-25.7587-28.2726-98.4525-42.7776-167.844-42.7776-50.7392 0-103.316 7.72608-138.004 22.9427ZM697.846 336.21000000000003c5.07904 5.248 7.90016 10.9722 7.90016 17.1981v11.1002c-2.40128-1.9712-5.03808-3.85024-7.90016-5.67808v-22.6202ZM381.829 240.17899999999997c2.45248-1.26976 5.09952-2.46784 7.89504-3.65056v25.7792a203.484 203.484 0 0 0-7.89504 3.24096v-25.3696ZM358.129 268.49800000000004c0-6.2208 2.81088-11.9501 7.88992-17.1981v22.6099a82.7648 82.7648 0 0 0-7.88992 5.7088v-11.1206ZM405.535 230.94799999999998c4.9152-1.43872 10.2195-2.76992 15.7952-3.99872v25.7792a284.795 284.795 0 0 0-15.7952 4.18816v-25.9686ZM520.09 257.48c95.4419 0 161.966 26.711 161.966 50.6982 0 0.36864-0.08192 0.75776-0.10752 1.152-34.6829-15.1398-87.3574-22.0314-138.153-22.0314-69.7498 0-142.874 13.0304-168.269 42.5421-11.1616-6.9376-17.3926-14.4282-17.3926-21.6576-0.00512-23.9923 66.5139-50.7034 161.956-50.7034ZM437.125 418.156v-25.5027c5.09952-0.82944 10.327-1.61792 15.8106-2.28864v25.1853a393.119 393.119 0 0 0-15.8106 2.60608ZM468.736 219.96000000000004c10.0147-0.90112 20.5926-1.50016 31.6058-1.82784v24.3405a479.795 479.795 0 0 0-31.6058 2.3296v-24.8422ZM530.76 799.5904c-239.375 0-433.408-190.776-433.408-426.102 0-235.32 194.033-426.081 433.408-426.081 239.345 0 433.367 190.761 433.367 426.081 0 235.331-194.022 426.102-433.367 426.102Zm-245.299-427.832l-9.30816-9.05216s-46.5101 85.929-25.5846 196.71c0 0 46.5203 115.523 186.051 122.312l58.3885-1.16736 0.52736 9.04192V724.89h27.7658l119.491-89.4054 3.21024 1.7664v-4.16768l-3.21024 2.40128-119.491-65.6179h-27.8579v21.3555H401.736c0 0.00512-146.524-2.40128-116.275-219.464Zm57.7843-110.986h-0.91136v46.3309h0.06144c-0.01536 0.3584-0.06144 0.70144-0.06144 1.08032 0 13.8394 9.62048 25.6102 25.4515 35.241-0.24064 0.75776-0.64 1.48992-0.83456 2.2784h-0.93184v46.3002h0.0768c-0.01536 0.3584-0.0768 0.70144-0.0768 1.07008 0 3.31776 0.74752 6.4512 1.81248 9.5232-12.9741 7.84896-21.8778 17.1622-24.5862 28.0115h-0.91136V476.928h0.06144a2.66752 2.66752 0 0 0-0.06144 0.67072c0 42.9517 91.5814 65.7152 177.756 65.7152 86.1696 0 177.756-22.8966 177.756-65.8483 0-0.3584-0.06144-0.53248-0.06144-0.53248h0.06144v-46.3206h-0.9216c-0.19968-0.75776-0.61952-1.48992-0.8704-2.24768 15.8413-9.6512 25.4976-21.4118 25.4976-35.287 0-0.36864-0.06144-0.71168-0.08192-1.07008h0.08192v-46.3002h-0.93184c-2.688-11.3818-11.479-20.8998-24.2688-28.7898 0.88064-2.83136 1.48992-5.7088 1.48992-8.7296 0-0.37888-0.06144-0.72192-0.06144-1.08032h0.06144v-46.3309h-0.9216c-9.63072-40.8115-95.616-58.3885-176.835-58.3885-81.2237-0.01024-167.204 17.5718-176.84 58.3834Zm452.879-84.1011s-46.5203-115.558-186.056-122.312l-58.3782 1.13152-0.53248-9.02144v-35.2819h-27.7709l-119.496 89.4106-3.2-1.76128v4.15232l3.2-2.39104 119.496 65.6077h27.8579v-21.3504h93.7011s146.524 2.39104 116.275 219.448l9.30816 9.05216c0.00512 0.00512 46.5152-85.9136 25.5949-196.685ZM682.056 476.928c0 23.9718-66.5242 50.688-161.966 50.688s-161.961-26.7213-161.961-50.688c0-23.977 66.5242-50.6778 161.961-50.6778s161.966 26.7008 161.966 50.6778ZM547.738 218.46000000000004v24.3917a488.632 488.632 0 0 0-27.648-0.80896c-1.31584 0-2.63168 0.03072-3.96288 0.03072v-24.2022c1.34144 0 2.6112-0.06144 3.96288-0.06144 9.5488 0 18.7085 0.26112 27.648 0.65024ZM437.125 223.90800000000001a366.336 366.336 0 0 1 15.8106-2.2784v25.1699a349.901 349.901 0 0 0-15.8106 2.60096v-25.4925ZM563.538 412.769v-24.6528c14.1875 1.02912 27.4176 2.53952 39.511 4.54144v25.5027c-12.6464-2.36544-25.9277-4.15232-39.511-5.39136ZM358.129 437.258c0-6.2208 2.81088-11.9501 7.88992-17.2083v22.6202a79.2781 79.2781 0 0 0-7.88992 5.69856v-11.1104ZM468.736 413.537v-24.8269c10.0147-0.89088 20.5926-1.50016 31.6058-1.8176v24.3354a510.244 510.244 0 0 0-31.6058 2.30912ZM547.738 387.2v24.4275c-9.1904-0.5376-18.4576-0.8192-27.648-0.8192-1.31584 0-2.63168 0.01024-3.96288 0.03072v-24.2227c1.34144 0 2.6112-0.04096 3.96288-0.04096a657.92 657.92 0 0 1 27.648 0.62464ZM618.849 421.478v-25.7741a219.105 219.105 0 0 1 15.7901 4.02944V425.677c-5.05856-1.53088-10.3578-2.89792-15.7901-4.1984ZM674.145 442.665v-22.6202c5.07904 5.25824 7.9104 10.9875 7.9104 17.2083v11.1104c-2.41152-1.97632-5.05856-3.87584-7.9104-5.69856ZM650.46 431.058v-25.769a107.274 107.274 0 0 1 7.8848 3.65056v25.3798c-2.52928-1.12128-5.18144-2.2016-7.8848-3.26144Z"  horiz-adv-x="1024" />

    
    <glyph glyph-name="tixianjilu" unicode="&#59011;" d="M729.093 622.607H365.844v-471.47h363.254c20.0192 0 36.3264 16.1894 36.3264 36.265V586.327c-0.00512 20.0755-16.3072 36.2803-36.3315 36.2803Zm-18.2118-253.875H488.704l71.7414-59.264a18.0992 18.0992 0 0 0 0-25.7126 18.2272 18.2272 0 0 0-25.8099 0l-108.621 89.6102c-3.82464 3.76832-5.43232 8.80128-5.13024 13.7882-0.30208 4.97664 1.31072 10.0096 5.13024 13.783l108.621 89.6512a18.3091 18.3091 0 0 0 25.8099 0 18.1504 18.1504 0 0 0 0-25.7587l-72.448-59.8221h222.884a18.1658 18.1658 0 0 0 18.217-18.1658 18.1606 18.1606 0 0 0-18.217-18.1094ZM256.891 586.327v-398.93a36.2598 36.2598 0 0 1 36.3264-36.265h36.3213V622.607h-36.3213a36.2701 36.2701 0 0 1-36.3264-36.2803ZM511.145 881.4592c-273.172 0-494.597-221.425-494.597-494.618 0-273.142 221.425-494.566 494.597-494.566 273.147 0 494.566 221.425 494.566 494.566 0 273.198-221.42 494.618-494.566 494.618Zm290.545-694.057c0-40.0947-32.5478-72.5402-72.5965-72.5402H293.217c-40.1254 0-72.6528 32.4454-72.6528 72.5402V586.327c0 40.105 32.5274 72.5555 72.6528 72.5555h435.876c40.0435 0 72.5965-32.4506 72.5965-72.5555v-398.925Z"  horiz-adv-x="1024" />

    
    <glyph glyph-name="chongrujilu" unicode="&#59012;" d="M735.944 612.854h-36.7974v-477.573h36.7974a36.7309 36.7309 0 0 1 36.777 36.7411V576.113a36.7309 36.7309 0 0 1-36.777 36.7411ZM257.659 576.113v-404.091a36.736 36.736 0 0 1 36.7974-36.7411h367.898V612.854H294.456a36.736 36.736 0 0 1-36.7974-36.7411Zm55.168-183.675h225.792L465.203 453.033a18.391 18.391 0 0 0 0 26.0966 18.5856 18.5856 0 0 0 26.1683 0l110.029-90.8186c3.84512-3.81952 5.4784-8.91904 5.2224-13.9674 0.26112-5.03808-1.37728-10.1376-5.2224-13.9571l-110.029-90.7725a18.4883 18.4883 0 0 0-26.1683 0 18.3296 18.3296 0 0 0 0 26.0454l72.6989 60.0371h-225.075a18.3552 18.3552 0 0 0-18.3706 18.345 18.3654 18.3654 0 0 0 18.3706 18.3962ZM515.174 875.0592c-276.705 0-500.992-224.287-500.992-501.018 0-276.68 224.287-500.966 500.992-500.966 276.68 0 500.997 224.287 500.997 500.966 0 276.731-224.317 501.018-500.997 501.018Zm294.333-703.037c0-40.617-32.9472-73.4874-73.5642-73.4874H294.456c-40.6426 0-73.5949 32.8704-73.5949 73.4874V576.113c0 40.617 32.9523 73.4874 73.5949 73.4874h441.492c40.6221 0 73.5642-32.8704 73.5642-73.4874v-404.091Z"  horiz-adv-x="1024" />

    
    <glyph glyph-name="eth" unicode="&#59014;" d="M512 896c-259.48 0-469.863-204.472-469.863-456.677 0-252.225 210.379-456.682 469.863-456.682 259.515 0 469.858 204.457 469.858 456.682 0 252.205-210.343 456.677-469.858 456.677ZM363.288 518.059H250.597v-50.5652h112.691v-56.3456H250.597v-50.5652h112.691v-56.3456h-196.485V574.404h196.49v-56.3456Zm236.948 0h-56.3507v-213.822H460.092V518.059H403.741V574.404h196.495v-56.3456Zm180.593-213.827V411.143h-67.9065v-106.911H629.124V574.404h83.799v-106.916h67.9065V574.404h83.799v-270.172H780.829Z"  horiz-adv-x="1024" />

    
    <glyph glyph-name="hangqing-weidianji" unicode="&#59016;" d="M176.60166041 205.63810124999998l209.1166875 207.52412625h23.77431l89.69443875-89.02467h1.4982975c9.3966075-7.23846375 21.09027375-11.74327875 33.96967875-11.74327875 12.8496375 0 24.53338125 4.504815 33.93495 11.74327875h1.89023625l275.3394525 273.26565c0.27286875-0.35224875 0.62015625-0.62015625 0.8831025-1.0617075 5.11504875 5.8245075 12.4924275 9.53056125 20.78267625 9.53056125a28.08563625 28.08563625 0 0 0 25.580205-16.411815c0.53085375 0.44155125 1.41395625 0.70945875 1.94977125 1.23535125l22.93585875-22.762215c2.4707025-6.3504 7.58575125-11.291805 13.94607375-13.85181l2.81799-2.82295125 1.5876 1.94481c1.5876-0.35224875 3.09085875-0.96744375 4.85706375-0.96744375 13.85677125 0 25.05927375 11.11816125 25.05927375 24.88066875 0 4.0583025-1.1410875 7.76435625-2.917215 11.11816125V819.3993c1.2403125 2.02915125 2.123415 4.2369075 2.123415 6.70761a13.27134375 13.27134375 0 0 1-13.236615 13.236615c-1.85054625 0-3.52744875-0.35224875-5.11504875-1.05674625h-248.4296325l-0.57054375-0.62015625c-1.05674625 0.178605-1.9745775 0.62015625-3.08093625 0.62015625-12.4924275 0-22.63818375-10.05645375-22.63818375-22.4149275 0-1.05674625 0.4862025-2.02915125 0.62015625-3.0858975l-3.6614025-3.61675125 52.9365375-52.50490875-0.12403125-0.26294625c6.35536125-5.12001 10.67661-12.52715625 10.67661-21.35322 0-7.50141-3.09085875-14.29336125-7.99257375-19.32406875 0.099225-0.0893025 0.13395375-0.178605 0.23317875-0.26294625l-191.0775825-189.618975h-21.9783375L444.04280291 593.25064125c-7.9876125 14.9135175-23.6453175 25.14857625-41.8233375 25.14857625-15.221115 0-28.54207125-7.14916125-37.2788325-18.0887175h-4.8521025L63.92671166 314.69133750000003c-5.8245075-4.14264375-10.93955625-9.1783125-15.39972-14.81925375l-6.8366025-6.53396625 1.2800025-1.1410875c-7.50141-12.09056625-12.045915-26.2053225-12.045915-41.376825 0-43.85745 35.82518625-79.41969 79.9852725-79.41969 27.22237875-0.0099225 51.219945 13.5839025 65.69191125 34.23758625z m742.5899775 253.6687125l-342.57927375-305.20121625c-4.8917925-8.03226375-13.36064625-13.6831275-23.5064025-13.6831275-7.14916125 0-13.50948375 2.82295125-18.45088875 7.23846375h-0.4862025L409.80521666 238.90328250000005c-18.53026875 9.1783125-30.30827625 7.759395-49.85064-8.38947375l-247.23397125-214.05313125-0.13395375-56.55825c0-17.29987875 14.07506625-31.24099125 31.454325-31.24099125h797.56558875c17.38422 0 43.58458125 13.9411125 43.58458125 31.24099125V428.07078375c0 17.21057625-24.349815 47.56350375-65.99950875 31.23603z"  horiz-adv-x="1024" />

    
    <glyph glyph-name="huoyan" unicode="&#59017;" d="M552.55552 742.5792c17.76128-4.36736 36.98688-58.96192 36.98688-58.96192 48.47104 76.43136-30.58176 133.21216-30.58176 133.21216-9.60512-39.31136-24.1664-69.88288-6.40512-74.25024z m214.2976-699.08992c-67.69664 36.97664 112.82944 26.19904 40.32512 222.74048 0 0-32.31744-13.1072-27.50976 120.25344 0 0-48.3328-30.57152-43.39712-87.3472 0 0 3.21024-13.1072-9.74336-4.37248-12.81024 8.73984-36.98176 2.03776-40.33536 128.84992-3.19488 126.80192-41.76896 126.80192-49.93024 124.47232 0 0-6.4-69.87776-33.77664-74.24512-27.37152-4.36736 1.59744 198.86592-117.632 244.72576 0 0 1.60256-89.53344-87.05536-179.21024-88.51456-89.53344-57.94304-100.4544-53.13536-150.67648 4.80256-50.23232-38.5792-10.92096-38.5792 30.57152s-37.12512 93.9008-48.47616 93.9008c-11.20768 0 32.31744-126.65856-30.57664-179.072-62.7456-52.40832-35.3792-209.93024-12.81024-233.8048 22.56384-24.17152-29.11744-30.57664-43.53024 28.24704-14.55616 59.10016-53.28384-160 104.67328-205.85472h446.36672s107.86816 33.33632 112.82432 135.97696c4.80768 102.76352 0-52.42368-67.70176-15.1552zM181.89824 325.33504c38.72256 111.37024-8.00768 148.49536-8.00768 148.49536 11.20768-10.92096-11.35616-54.59456-11.35616-109.19424 0.00512-54.73792 19.36384-39.30112 19.36384-39.30112z"  horiz-adv-x="1024" />

    
    <glyph glyph-name="qianbao-weidianji" unicode="&#59019;" d="M748.61381371 442.37223797a117.20953125 60.05098938 0 1 1 234.4190625 0 117.20953125 60.05098938 0 1 1-234.4190625 0ZM967.11230248 396.61439666c-19.22484375-19.71602688-58.96939812-33.26023938-104.90524365-33.26023939-43.23235188 0-80.9676 12.00128313-101.28411255 29.84686063-7.8685425-8.06203125-12.30884187-17.16098313-12.30884187-26.78086626 0-33.16595625 52.4751025-60.05098938 117.20468628-60.05098938 64.73442876 0 117.20953125 26.88503313 117.20953125 60.05098938 0 11.00903313-5.814585 21.31351062-15.91572876 30.19414812ZM897.61991869 211.76326042999995c30.39259812 4.9314825 55.43702688 16.01989563 69.49218999 30.43726875 10.10108562-8.870715 15.91572876-19.19015376 15.91572877-30.19909 0-28.07079126-37.60133313-51.63672875-88.39959127-58.21532687-2.81799 6.0229575-7.957845 14.62580376-12.66107124 18.01922123 0 0 9.67939875 8.77149 12.62638125 19.15536688 3.2248125 11.38112688 3.0263625 20.80256 3.0263625 20.80256001ZM760.92779125 316.29156536000005c31.76692251-18.09867876 58.05156687-29.84191875 101.28411255-29.84191875 45.93623313 0 85.6807875 13.53927063 104.90524365 33.25529751 10.10108562-8.87567625 15.91572876-19.18511499 15.91572876-30.19414812 0-27.96652749-37.31354187-51.47296875-87.83398937-58.15079187 0 0-29.3706 28.89433938-54.37035814 34.02923313-30.57622251 18.59480376-79.90093125 50.902425-79.90093125 50.902425ZM880.84081616 37.022609060000036c10.47812124-8.7020325 16.51602063-18.81302124 16.51602062-29.61372063 0-2.97178875-0.4663575-5.893965-1.34449875-8.74668375 52.6041725 5.91381 91.97663313 29.91139563 91.97663314 58.63703313 0 11.00903313-5.814585 21.32843313-15.91572877 30.19908999-16.337435-16.75914126-47.51889125-29.0233125-84.70346-32.33746626l-2.282175-9.38172375-4.24683-8.75660625ZM891.61699999 130.73597039000003c33.08659563 4.39070625 60.52230813 15.96534125 75.4953025 31.32041001 10.10108562-8.870715 15.91572876-19.19015376 15.91572875-30.19908999 0-28.2295125-38.03292312-51.89961687-89.27769375-58.31949375-0.93767625 9.9075775-6.78202875 19.18511499-16.43162123 27.26701061l14.29828373 29.93126002ZM482.21503759 612.14582537l-85.26896498 0.0694575c14.16436875-0.5258925 28.58174187-0.82852875 43.00909562-0.82852875 14.15448501 0 28.30887312 0.2877525 42.25996626 0.75907125ZM209.54977636 623.8144528099999c2.123415 3.02140125 5.47225875 5.12001 9.4561425 5.12001 0 0 74.8999525-11.907 163.30942749-16.09431438h116.12813378c89.8482375 4.187295 166.64858129 16.09431438 166.64858131 16.09431438 2.42605125 0 4.57923375-0.92775375 6.4793925-2.18791125 4.782645 58.39885437 37.97836875 118.13201367 65.42900375 153.39177246a19.77058125 19.77058125 0 0 1 2.321865 21.16467312c-3.38853375 6.83164125 2.41612875 3.472875-5.2688475 3.472875-24.00256626 0-55.94303562 53.50213938-165.51679613-36.51974187-17.38423938-14.28345813-65.156135 86.82681687-121.44112866 85.63611687-66.79828938-1.42387875-125.77737744-104.51861499-142.68535621-85.22933313-74.52291687 84.85229751-131.17564379 36.11295813-155.46541992 36.11295813-7.68497625 0-3.94419375 3.35876625-7.3327275-3.472875a19.68124 19.68124 0 0 1 2.1333375-20.94635874c27.95664375-35.81528313 61.9164-97.09708887 65.80603938-156.54197241ZM633.28510009-0.8359920100000409c0 13.62357312 9.1584675 26.2103225 24.63260625 36.415575-15.47415813 10.20031062-24.63260625 22.78706001-24.63260625 36.41063313s9.1584675 26.2103225 24.62766438 36.41063312c-15.46921625 10.20031062-24.62766438 22.78706001-24.62766438 36.41063313s9.1584675 26.2103225 24.63260625 36.41063313c-15.47415813 10.2052525-24.63260625 22.79200188-24.63260625 36.415575 0 34.01431062 56.96009187 61.59391875 127.23086865 61.59391875 30.462075 0 58.40379625-5.1894675 80.31275376-13.83200376-10.21029126 83.8302025-54.58867251 230.98107129-164.79780249 342.03845875-1.64217375-4.49985375-5.854275-7.73955-10.93461438-7.73955 0 0-112.92270117-17.5479025-225.13609863-17.5479025-79.98523374 0-159.37531127 9.1187775-197.48778882 14.21398125v-177.91992114h3.2446575c3.9789225 0 7.18389-5.23908 7.18389-11.68868562l7.18389-46.77964563c0-6.45458625-3.21489-11.68868562-7.18389-11.68868562H202.68832885c-3.96403875 0-7.1739675 5.23908-7.1739675 11.68868562l7.1739675 46.77964563c0 6.449625 3.20992875 11.68868562 7.15908375 11.68868562h3.26946375V601.50433172a11.4604875 11.4604875 0 0 0-5.6657475 8.97490125C49.94093749 460.58448284 17.57870374 231.90574161999996 37.05157124 137.73598405999996c42.0217875-203.10407886 337.10240259-210.57017871 413.27696996-210.57017871 34.12351626 0 128.52156885 1.567755 216.28046118 30.45219126-20.69335437 10.94943999-33.32467749 25.53551499-33.32467748 41.54552688ZM649.17563501 208.56364177a119.28317871 57.74895000000001 0 1 1 238.56635742 0 119.28317871 57.74895000000001 0 1 1-238.56635742 0ZM871.54331738 169.33003800999995c-19.55720874-18.95691687-60.00631875-31.98513999-106.75602246-31.98513999-44.00134563 0-82.4063625 11.53984812-103.0796587 28.70083125-8.00249625-7.75443375-12.52715625-16.50109812-12.52715625-25.75382936 0-31.89589563 53.40785625-57.74895 119.28317871-57.74895s119.28317871 25.85305437 119.28317872 57.74895c-0.00496125 10.58732688-5.9237325 20.50488501-16.20342312 29.038235ZM871.54331738 100.14482537000004c-19.55720874-18.96185874-60.00631875-31.99017876-106.75602246-31.99017877-44.00134563 0-82.4063625 11.54478999-103.0796587 28.70577313-8.00249625-7.759395-12.52715625-16.50109812-12.52715625-25.75877124 0-31.89589563 53.40785625-57.74895 119.28317871-57.74895s119.28317871 25.85305437 119.28317872 57.74895c-0.00496125 10.58732688-5.9237325 20.50488501-16.20342312 29.04317688ZM871.54331738 30.370464279999965c-19.55720874-18.96185874-60.00631875-31.98513999-106.75602246-31.98513999-44.00134563 0-82.4063625 11.53984812-103.0796587 28.70083125-8.00249625-7.75443375-12.52715625-16.50109812-12.52715625-25.75877124 0-31.89095376 53.40785625-57.74895 119.28317871-57.74895s119.28317871 25.85799625 119.28317872 57.74895c-0.00496125 10.58732688-5.9237325 20.50488501-16.20342312 29.04317688Z"  horiz-adv-x="1024" />

    
    <glyph glyph-name="wode-yidianji" unicode="&#59023;" d="M800.456 38.47033333000002s-0.58368 33.8125-0.58368 54.0416c0 99.7427-81.152 185.057-187.274 220.826 47.017 32.5786 77.9008 86.8762 77.9008 148.383 0 99.6915-80.8192 180.449-180.444 180.449-99.6813 0-180.444-80.7578-180.444-180.449 0-60.0166 29.3837-113.009 74.5165-145.843-109.573-34.0173-193.449-121.021-193.449-223.365 0-19.1949-0.128-53.1917-0.128-53.1917l63.785-0.07168c0 5.71904 0.07168 27.2486 0.07168 40.2432 0 103.66 123.612 187.735 239.16 187.735 115.62 0 223.094-84.0755 223.094-187.735 0-13.6448-0.57856-35.1693-0.71168-40.96l64.5069-0.06144Zm-289.69 294.364c-68.2086 0-123.546 55.3523-123.546 123.622s55.337 123.546 123.546 123.546c68.2752 0 123.622-55.2704 123.622-123.546s-55.3421-123.622-123.622-123.622ZM512 872.53333333C242.662 872.53333333 24.32 654.18533333 24.32 384.85333333s218.342-487.68 487.68-487.68c269.332 0 487.68 218.348 487.68 487.68S781.332 872.53333333 512 872.53333333Zm0-893.839c-224.312 0-406.164 181.847-406.164 406.159S287.688 791.01733333 512 791.01733333c224.317 0 406.159-181.847 406.159-406.164S736.317-21.30566667000005 512-21.30566667000005Z"  horiz-adv-x="1024" />

    
    <glyph glyph-name="xiugaimima" unicode="&#59024;" d="M725.67296 528.32256h-177.68448v84.5824h177.68448c36.23936 0 65.68448 20.10112 65.68448 56.5504 0 36.34688-29.44512 52.49024-65.68448 52.49024h-177.68448V789.36064c0 37.87264-23.95648 68.53632-61.62944 68.53632-37.77024 0-76.34944-30.66368-76.34944-68.53632v-451.51232c-83.05664-31.77984-142.14656-112.18432-142.14656-206.5152 0-122.23488 98.8928-221.2352 220.93312-221.2352 121.93792 0 220.8256 99.00032 220.8256 221.2352 0 101.64224-68.4288 187.01824-161.63328 213.0176V417.85856h177.68448c36.23936 0 65.68448 17.56672 65.68448 53.9136 0.00512 36.34688-29.44 56.5504-65.68448 56.5504z m-138.1888-397.59872c0-53.70368-43.45344-97.26976-97.06496-97.26976s-97.05984 43.56608-97.05984 97.26976c0 53.71904 43.45344 97.26976 97.05984 97.26976s97.06496-43.55072 97.06496-97.26976z"  horiz-adv-x="1024" />

    
    <glyph glyph-name="wodefenxiang" unicode="&#59025;" d="M729.26208 183.44448c-22.25152 0-42.74176-6.50752-60.50304-17.152l-175.88736 129.8944c5.09952 16.79872 8.704 34.21184 8.704 52.67968 0 33.41824-9.75872 64.37376-25.41568 91.28448l154.16832 178.35008c19.26144-10.02496 40.8064-16.18432 64.02048-16.18432 76.60032 0 138.69056 61.73696 138.69056 137.89696 0 76.24704-62.09024 138.07104-138.69056 138.07104-76.5952 0-138.68544-61.824-138.68544-138.07104 0-24.18688 6.8608-46.61248 17.94048-66.4832L410.55232 505.93792c-27.35104 16.00512-58.83392 25.856-92.87168 25.856-101.48864 0-183.80288-81.87392-183.80288-182.92224 0-100.96128 82.31424-182.8352 183.80288-182.8352 57.1648 0 107.55584 26.4704 141.32736 67.18976l159.88224-127.25248c-4.48512-12.48768-7.38304-25.68192-7.38304-39.66464 0-64.64 52.67456-117.05344 117.75488-117.05344 64.98816 0 117.66784 52.41344 117.66784 117.05344s-52.67968 117.13536-117.66784 117.13536z"  horiz-adv-x="1024" />

    
    <glyph glyph-name="suodingshijian" unicode="&#59026;" d="M545.408 753.341s-2.66752 29.8752-29.8701 29.9827c-27.3152 0.10752-29.4298-29.9827-29.4298-29.9827v-342.487l-163.026-178.57s-17.9917-23.767 2.10944-42.0915c20.1011-18.432 41.7536 2.10944 41.7536 2.10944l171.131 187.571s8.66304 11.3254 7.33184 24.4275V753.341Zm-29.8701 124.268c-263.414 0-477.635-214.328-477.635-477.635 0-263.414 214.221-477.635 477.635-477.635 263.301 0 477.522 214.221 477.522 477.635 0 263.306-214.221 477.635-477.522 477.635Zm0-890.086c-227.436 0-412.559 185.016-412.559 412.452s185.124 412.447 412.559 412.447c227.323 0 412.447-185.011 412.447-412.447s-185.124-412.452-412.447-412.452Z"  horiz-adv-x="1024" />

    
    <glyph glyph-name="yonghuziliao" unicode="&#59027;" d="M686.0544 121.92256c0-27.56096 22.2208-49.88416 49.56672-49.88416h198.69184c27.44832 0 49.66912 22.3232 49.66912 49.88416s-22.2208 49.88416-49.66912 49.88416h-198.69184c-27.34592 0.00512-49.56672-22.3232-49.56672-49.88416z m229.66784 74.88c-52.87424 69.48864-132.56704 124.49792-224.32256 155.58656 73.28256 51.01056 121.34912 135.9872 121.34912 232.39168 0 156.01152-125.83424 282.54208-281.15456 282.54208-155.42272 0-281.26208-126.53056-281.26208-282.54208 0-94.0032 45.82912-177.05984 116.11648-228.43904-170.7008-53.248-301.45024-189.55264-301.45024-349.78304 0-30.01856-0.21504-83.21536-0.21504-83.21536l99.45088-0.21504c0 8.97536 0.10752 42.73152 0.10752 63.0272 0 162.37056 192.59904 293.96992 372.70016 293.96992 88.44288 0 173.69088-31.83104 237.78304-83.31776h140.89728z m-383.06304 186.1376c-106.28608 0-192.49152 86.6304-192.49152 193.50528s86.20544 193.5616 192.49152 193.5616c106.3936 0 192.70656-86.68672 192.70656-193.5616s-86.31296-193.50528-192.70656-193.50528z m451.53792-460.98432s-0.10752 3.0976-0.21504 8.00768v-7.69024h-49.66912c27.44832 0 49.66912 22.43584 49.66912 49.9968s-22.2208 49.77664-49.66912 49.77664h-322.816c-27.45344 0-49.67424-22.21568-49.67424-49.77664s22.2208-49.9968 49.67424-49.9968h272.0768v-0.21504l100.62336-0.1024z"  horiz-adv-x="1024" />

    
    <glyph glyph-name="wodefenxiang1" unicode="&#59028;" d="M729.26208 183.44448c-22.25152 0-42.74176-6.50752-60.50304-17.152l-175.88736 129.8944c5.09952 16.79872 8.704 34.21184 8.704 52.67968 0 33.41824-9.75872 64.37376-25.41568 91.28448l154.16832 178.35008c19.26144-10.02496 40.8064-16.18432 64.02048-16.18432 76.60032 0 138.69056 61.73696 138.69056 137.89696 0 76.24704-62.09024 138.07104-138.69056 138.07104-76.5952 0-138.68544-61.824-138.68544-138.07104 0-24.18688 6.8608-46.61248 17.94048-66.4832L410.55232 505.93792c-27.35104 16.00512-58.83392 25.856-92.87168 25.856-101.48864 0-183.80288-81.87392-183.80288-182.92224 0-100.96128 82.31424-182.8352 183.80288-182.8352 57.1648 0 107.55584 26.4704 141.32736 67.18976l159.88224-127.25248c-4.48512-12.48768-7.38304-25.68192-7.38304-39.66464 0-64.64 52.67456-117.05344 117.75488-117.05344 64.98816 0 117.66784 52.41344 117.66784 117.05344s-52.67968 117.13536-117.66784 117.13536z"  horiz-adv-x="1024" />

    
    <glyph glyph-name="shenqingjiaru" unicode="&#59029;" d="M817.77173333 378.14293333c-103.13386667 0-186.74133333-83.60746667-186.74133333-186.74133333s83.60746667-186.74133333 186.74133333-186.74133333 186.74133333 83.6064 186.74133334 186.74133333-83.6064 186.74133333-186.74133334 186.74133333z m117.664-208.05653333h-96.0992v-90.73066667h-43.13066666v90.73066667h-84.85866667v43.13173333h84.85866667V303.44533333000004h43.13066666v-90.22933333h96.10026667v-43.13066667zM636.80426667 705.37493333v-0.896c64.28693333 0 116.58666667-52.3008 116.58666666-116.58666666 0-64.288-52.29973333-116.58666667-116.58666666-116.58666667v-58.03946667c33.8784-0.8128 66.99733333-8.01173333 97.96373333-20.34133333l89.888 26.48213333c-19.07413333 5.56693333-79.66186667 25.9552-100.56213333 30.69866667 45.568 28.97066667 75.8688 79.904 75.8688 137.7856 0 89.96586667-73.19253333 163.1584-163.1584 163.1584v-0.29973333c-12.38826667-0.17493333-22.37973333-10.25813333-22.37973334-22.688s9.99146667-22.51306667 22.37973334-22.688zM666.5504 353.9968a35.06026667 35.06026667 0 0 1-9.184 7.3472c-32.9792 25.66933333-69.4592 45.96266667-108.6336 60.3648a402.68906667 402.68906667 0 0 1-17.91893333 6.10346667c51.49013333 37.63626667 85.008 98.46613333 85.008 166.98666666 0 113.9904-92.7392 206.73066667-206.73066667 206.73066667s-206.73066667-92.7392-206.73066667-206.73066667c0-68.51946667 33.5168-129.34826667 85.0048-166.9856a404.08746667 404.08746667 0 0 1-35.80266666-13.17013333c-48.192-20.384-91.46666667-49.55733333-128.6208-86.71253333-37.15413333-37.152-66.32746667-80.42666667-86.71146667-128.6208-21.1104-49.91146667-31.81546667-102.912-31.81546667-157.52853334h0.3072c0-19.29066667 15.63946667-34.92906667 34.92906667-34.92906666 19.29173333 0 34.92906667 15.63733333 34.92906667 34.92906666 0 1.408-0.0928 2.79466667-0.256 4.16 2.24 182.7072 151.53706667 330.65813333 334.76586666 330.65813334 77.91146667 0 153.78026667-27.34293333 213.62986667-76.9952l0.61013333 0.736c31.728 38.24533333 47.0112 50.864 47.0112 50.864m-261.248 380.4672c75.47093333 0 136.87146667-61.4016 136.87146667-136.8736s-61.4016-136.87253333-136.87253333-136.87253334c-75.472 0-136.87253333 61.4016-136.87253334 136.87466667s61.39946667 136.87146667 136.87253334 136.87146667z"  horiz-adv-x="1024" />

    
    <glyph glyph-name="yuyan" unicode="&#59030;" d="M690.90304 146.24256c-19.6096 0-96.61952-118.29248-138.63936-118.29248-11.20256 0-16.75776 9.73824-16.75776 19.47136 0 22.23104 15.3856 57.08288 23.78752 77.97248l100.79744 271.35488c50.42688 135.05536-14.00832 171.21792-74.20928 171.21792-81.18784 0-154.01984-40.36608-209.9968-93.24544-18.18624-18.13504-79.81056-76.54912-79.81056-101.62176 0-8.36096 8.40192-18.09408 18.2272-18.09408 25.1648 0 92.34944 121.09312 144.19456 121.09312 11.20256 0 23.78752-12.53376 13.96224-37.56032l-97.95072-244.99712c-9.8304-23.69024-57.40032-137.75872-57.40032-204.6208 0-52.89984 34.99008-76.50816 85.41696-76.50816 141.39392 0 305.14688 172.57472 305.14688 212.98688-0.00512 12.4928-9.78944 20.84352-16.768 20.84352z m-28.05248 677.80608c-61.58336 0-114.7648-50.07872-114.7648-111.31392 0-57.10336 37.79584-94.68928 95.20128-94.68928 63.00672 0 116.17792 47.32416 116.17792 111.38048 0 57.07776-40.5504 94.62272-96.6144 94.62272z"  horiz-adv-x="1024" />

    
    <glyph glyph-name="xinwen" unicode="&#59031;" d="M843.1104 91.15136h-117.10976a29.312 29.312 0 0 1-29.3376-29.30176 29.34272 29.34272 0 0 1 29.3376-29.30176h117.10976a29.3376 29.3376 0 0 1 29.3376 29.30176 29.312 29.312 0 0 1-29.3376 29.30176z m-263.56224 410.22976H228.04992c-32.35328 0-58.57792-26.2912-58.57792-58.5984v-351.63648c0-32.34816 26.22464-58.5984 58.57792-58.5984h351.49824c32.31232 0 58.55232 26.25024 58.55232 58.5984V442.78272c0 32.3072-26.24 58.5984-58.55232 58.5984z m0-380.93312a29.34272 29.34272 0 0 0-29.3376-29.30176H257.32608a29.29664 29.29664 0 0 0-29.27616 29.30176V413.44c0 16.19456 13.10208 29.34272 29.27616 29.34272h292.88448a29.35808 29.35808 0 0 0 29.3376-29.34272v-292.992zM872.448 618.57792h-271.08864l256.9216 176.82944c13.63968 9.33376 17.48992 28.60544 8.69888 43.02848s-26.92096 18.55488-40.51968 9.22112c0 0-281.46176-194.43712-305.23904-208.7936L215.43936 847.65696c-13.5936 9.33376-31.7184 5.20704-40.51456-9.22112s-4.91008-33.69984 8.65792-43.02848l256.96256-176.82944H169.472c-64.72192 0-117.17632-52.49536-117.17632-117.1968v-468.83328c0-64.74752 52.4544-117.20192 117.17632-117.20192h702.976c64.70144 0 117.10976 52.44928 117.10976 117.20192V501.38112c0 64.70144-52.40832 117.1968-117.10976 117.1968z m58.56256-586.03008c0-32.34816-26.25024-58.5984-58.56256-58.5984H169.472c-32.34816 0-58.5984 26.25024-58.5984 58.5984V501.38112c0 32.35328 26.24512 58.5984 58.5984 58.5984h702.976c32.31232 0 58.56256-26.24512 58.56256-58.5984v-468.83328z m-87.90016 146.50368h-117.10976a29.31712 29.31712 0 0 1-29.3376-29.30176 29.312 29.312 0 0 1 29.3376-29.30176h117.10976a29.312 29.312 0 0 1 29.3376 29.30176 29.31712 29.31712 0 0 1-29.3376 29.30176z m-58.55232 322.3296c-48.512 0-87.90016-39.39328-87.90016-87.94112 0-48.55296 39.38816-87.85408 87.90016-87.85408 48.5376 0 87.88992 39.30112 87.88992 87.85408 0 48.54784-39.3472 87.94112-87.88992 87.94112z m29.30176-117.19168h-58.5984V442.78272h58.5984v-58.59328z"  horiz-adv-x="1024" />

    
    <glyph glyph-name="changjianwenti" unicode="&#59032;" d="M982.4512 424.71936c0 231.8336-210.62144 419.77856-470.43584 419.77856-259.82464 0-470.46144-187.94496-470.46144-419.77856s210.6368-419.75808 470.46144-419.75808c42.24 0 82.9952 5.40672 121.9584 14.72512l193.29024-125.70112-14.19776 208.27136c103.49568 76.98944 169.38496 192.82944 169.38496 322.46272z m-406.17984-259.03616l-32.02048-31.86688H471.82848l-23.58272 23.50592V222.6688l13.47584 23.45984h85.9136l28.63104-28.45696v-51.98848z m121.27744 326.81472s-149.90848-130.73408-151.59808-159.18592v-30.19264h-84.224V398.63296l133.08416 122.35264v62.0032s-47.17056 80.44032-131.39968 23.45984c0 0-43.8016-33.52576-55.59296-103.90528 0 0-106.112-60.33408-92.63616 56.9856 0 0 40.43264 113.9712 146.54464 142.44352h107.81696s109.47072-31.84128 128.01024-120.64256v-88.832z"  horiz-adv-x="1024" />

    
    <glyph glyph-name="shezhi" unicode="&#59033;" d="M996.33664 148.06528l-29.91616 15.12448c2.8928 14.01856 3.45088 28.25728 1.32096 42.0608l30.848 13.12256a14.74048 14.74048 0 0 1 7.79776 19.28704l-11.46368 27.07968a14.60736 14.60736 0 0 1-19.21536 7.77728l-30.98112-13.18912c-4.60288 5.9904-9.63072 11.6992-15.3856 16.78848l15.04256 29.9776a14.72512 14.72512 0 0 1-6.48192 19.74784l-26.1632 13.25568a14.6432 14.6432 0 0 1-19.6864-6.54336l-14.91456-29.70112c-7.58272 1.664-15.17056 2.29888-22.79936 2.432l-7.79264 32.57856a14.62784 14.62784 0 0 1-17.64352 10.86464l-28.50304-6.8864a14.70464 14.70464 0 0 1-10.82368-17.72544l7.79776-32.61952c-12.27264-6.53824-23.35744-15.46752-32.81408-26.18368l-29.91616 15.12448a14.60736 14.60736 0 0 1-19.64544-6.51776l-13.2096-26.27072a14.74048 14.74048 0 0 1 6.51776-19.74784l29.8752-15.15008c-2.89792-13.97248-3.456-28.2112-1.32608-42.01472l-30.848-13.12256a14.69952 14.69952 0 0 1-7.7568-19.26144l11.46368-27.10528a14.5408 14.5408 0 0 1 19.1744-7.79264l30.98112 13.2096c4.59776-6.01088 9.63072-11.71968 15.42656-16.78848l-15.08352-29.96224a14.75072 14.75072 0 0 1 6.51776-19.76832l26.1632-13.25568a14.63296 14.63296 0 0 1 19.64544 6.51776l14.91456 29.7472c7.58272-1.70496 15.21152-2.29888 22.79424-2.46784l7.79776-32.55296a14.6688 14.6688 0 0 1 17.68448-10.91072l28.4672 6.90176a14.66368 14.66368 0 0 1 10.81856 17.73056l-7.79264 32.64c12.3136 6.51776 23.35232 15.42656 32.85504 26.1632l29.87008-15.08352a14.57664 14.57664 0 0 1 19.64544 6.4768l13.2096 26.25024a14.7712 14.7712 0 0 1-6.46656 19.7632z m-81.01376 7.8848c-17.51552-34.944-59.9552-49.00352-94.7712-31.4112-34.816 17.64352-48.83456 60.25728-31.27808 95.20128 17.51552 34.93888 59.96032 49.00352 94.77632 31.3856 34.816-17.60256 48.82944-60.19072 31.27296-95.17568z m-162.30912 179.97312c18.5344 0 33.536 11.07968 33.536 29.68064V434.69824c0 18.58048-15.0016 31.0016-33.536 31.0016h-85.22752c-8.73472 34.56-24.2432 66.34496-44.8256 94.11072l44.65664 52.94592c11.97568 14.18752 10.22976 35.45088-3.92192 47.46752l-34.68288 31.42656a33.4848 33.4848 0 0 1-47.29856-3.9424l-44.44672-52.73088c-24.37632 13.53216-50.9696 23.48032-79.22176 28.84608v79.9232c0 18.60096-15.0016 33.68448-33.536 33.68448h-45.85472c-18.53952 0-33.536-15.08352-33.536-33.68448v-82.73408c-25.6512-6.17984-49.72544-16.23552-71.93088-29.16864l-47.1296 55.86432c-11.97568 14.18752-33.152 15.95904-47.2576 3.9424l-34.72896-31.42656c-14.1056-12.01664-15.89248-33.28-3.92192-47.46752l48.87552-57.9328a269.34272 269.34272 0 0 1-41.1648-89.12384H67.584c-18.53952 0-33.536-12.42112-33.536-31.0016v-69.0944c0-18.60096 15.0016-29.68064 33.536-29.68064h79.55968c9.24672-38.44096 26.8032-73.5488 50.49856-103.57248l-49.51552-58.63936a33.80224 33.80224 0 0 1 3.92192-47.46752l34.68288-31.44704a33.47456 33.47456 0 0 1 47.29856 3.92192l51.56352 61.14816a265.61024 265.61024 0 0 1 59.53024-22.32832v-80.49664c0-18.58048 15.0016-33.664 33.536-33.664h45.85472c18.5344 0 33.536 15.08352 33.536 33.664v77.68064a266.61888 266.61888 0 0 1 66.688 22.1184l49.00352-58.12736a33.4848 33.4848 0 0 1 47.29856-3.92192l34.68288 31.44704c14.15168 12.02176 15.89248 33.23904 3.92704 47.46752l-45.30176 53.67296c25.69728 31.04256 44.35968 68.02944 54.1184 108.53376h84.54656z m-205.09696 19.51744c-18.49344-59.83232-74.0608-103.296-139.72992-103.296a145.7664 145.7664 0 0 0-39.97184 5.68832l0.33792 0.40448c-38.30784 10.9312-70.18496 37.07392-88.6784 71.60832l-0.46592-0.53248a146.5088 146.5088 0 0 0-17.51552 69.66784c0 81.11616 65.49504 146.8672 146.28864 146.8672 5.15584 0 10.18368-0.36352 15.21152-0.91648 0.08704 0 0.128-0.02048 0.21504-0.02048a143.71328 143.71328 0 0 0 23.90528-4.66432c2.38592-0.66048 4.77184-1.34144 7.07072-2.12992 0.256-0.06144 0.512-0.128 0.768-0.21504l-0.04096-0.04096c57.65632-19.60448 99.2-74.25024 99.2-138.74688a146.19648 146.19648 0 0 0-6.59456-43.6736z"  horiz-adv-x="1024" />

    
    <glyph glyph-name="chengduiguanli" unicode="&#59034;" d="M515.234 463.144a23.39 23.39 0 0 0-15.549 3.88L134.01 610.952a37.376 37.376 0 0 0-23.336 35.031 39.397 39.397 0 0 0 23.336 35.032L499.66 824.94a33.226 33.226 0 0 0 27.216 0l365.649-143.926a37.376 37.376 0 0 0 23.336-35.032 39.397 39.397 0 0 0-23.336-35.031l-365.65-143.926a14.282 14.282 0 0 0-11.64-3.88zM254.599 645.982L515.234 544.85l260.635 101.133-260.635 101.134zM515.341 276.42600000000004L138.078 428.14a39.397 39.397 0 1 0 27.217 73.916l350.1-140.126 350.1 140.126a39.397 39.397 0 1 0 27.217-73.916zM515.207 85.827L134.009 237.54100000000005a39.397 39.397 0 1 0 27.217 73.917l350.1-140.127 350.1 140.127a39.397 39.397 0 1 0 27.217-73.917zM515.341-100.88999999999999L138.078 50.822a39.397 39.397 0 0 0 27.217 73.916l350.1-140.126 350.1 140.126a39.397 39.397 0 0 0 27.217-73.916z"  horiz-adv-x="1024" />

    
    <glyph glyph-name="guanyuwomen" unicode="&#59035;" d="M938.9312-36.16256l-102.05696 101.93408c26.23488 35.94752 41.856 80.1024 41.856 127.97952 0 120.32-97.62304 217.86624-218.0608 217.86624-120.40192 0-218.02496-97.54624-218.02496-217.86624s97.62304-217.87136 218.02496-217.87136c47.06304 0 90.51136 15.0016 126.15168 40.34048l97.97632-100.45952 41.50272-2.9952 13.21472 10.8032-0.58368 40.2688z m-276.74624 75.0848c-83.05152 0-150.36416 67.30752-150.36416 150.31808 0 83.01568 67.31264 150.2464 150.36416 150.2464 83.09248 0 150.4-67.23072 150.4-150.2464 0-83.01056-67.30752-150.31808-150.4-150.31808zM495.42144 413.40416c81.536 30.52544 139.71456 108.91264 139.71456 201.07776 0 118.69184-96.30208 214.91712-215.02976 214.91712-118.80448 0-215.07072-96.22528-215.07072-214.91712 0-88.02304 53.04832-163.59424 128.8704-196.80256-76.67712-48.03584-229.64224-167.5008-225.13664-354.66752 0 0 102.28736-180.33152 409.07264-120.20736 0.00512 0.00512-280.66816 246.35904-22.42048 470.59968z"  horiz-adv-x="1024" />

    
    <glyph glyph-name="xiugaizhifumima" unicode="&#59045;" d="M908.93455546 672.71142092v-173.62654018h-129.62829291c-38.63647038 1.97048793-40.55571632-32.76227348-40.55571632-32.76227348v-32.81351548c-1.96582958-44.34762455 30.89426955-52.08050867 30.89426954-52.08050866h139.92793555v-337.63355886H171.41772064v57.31650972h681.19721498v224.34680658h-102.28369669c-63.80561067 19.31357683-67.65341926 63.70312666-67.65341925 63.70312667V466.3179489c0 79.08038598 57.9919725 86.81327009 57.99197248 86.8132701h111.64700818V780.56186249H143.09020962c-47.02618382 0-85.13625908-38.08678344-85.13625909-84.98719143v-623.19592577c0-46.90040799 38.11007526-84.94060779 85.13625909-84.94060778l822.99781282 2.01707158V672.71142092h-57.15346698zM382.97731825 409.68156032V644.7798708400001c0 19.71419612 20.07754851 35.63182566 39.74516099 35.63182566 19.67227085 0 32.13339435-15.91762953 32.13339436-35.63182566v-35.10077218h92.47784062c18.92693262 0 34.20636629-8.40834689 34.2063663-27.3352795 0-18.98283299-15.27477531-29.45483509-34.2063663-29.45483509H454.8558736v-44.08675617h92.47784062c18.92693262 0 34.20636629-10.45336864 34.2063663-29.38030128 0-18.98283299-15.27477531-28.071301-34.2063663-28.07130101H454.8558736v-38.29640982c48.54015209-13.51857211 84.17663611-57.98731413 84.1766361-110.88769484 0-63.67051812-51.49821317-115.26655694-115.02898037-115.26655694-63.50281702 0-115.00568855 51.59603883-115.00568856 115.26655694 0 49.0944974 30.73122681 90.91263035 73.97947748 107.51503937zM424.89327684 251.19470289000003c27.89428318 0 50.52927348 22.61169849 50.52927348 50.63175749 0 27.97347536-22.63499031 50.58983222-50.52927348 50.58983222a50.56188203 50.56188203 0 0 1-50.60380731-50.58983222 50.57119876 50.57119876 0 0 1 50.60380731-50.63175749z"  horiz-adv-x="1024" />

    
    <glyph glyph-name="shimingrenzheng" unicode="&#59073;" d="M633.58976 163.56864c0-22.272 18.0992-40.33024 40.448-40.33024h161.792c22.32832 0 40.43776 18.05824 40.43776 40.33024 0 22.29248-18.10944 40.34048-40.43776 40.34048h-161.792c-22.3488 0-40.448-18.048-40.448-40.34048z m187.03872 60.52352c-43.03872 56.16128-107.91936 100.6592-182.6816 125.76256 59.68896 41.22624 98.86208 109.93152 98.86208 187.81696 0 126.14656-102.528 228.38784-229.02784 228.38784-126.47936 0-229.01248-102.24128-229.01248-228.38784 0-75.96544 37.34016-143.08864 94.57152-184.60672-138.99264-43.03872-245.46816-153.21088-245.46816-282.73152 0-24.29952-0.16896-67.28192-0.16896-67.28192l80.93184-0.11776c0.03072 7.28064 0.12288 34.47808 0.12288 50.93888 0 131.2 156.83584 237.568 303.54944 237.568 72.02816 0 141.44512-25.728 193.56672-67.34848h114.75456zM508.73856 374.528c-86.62016 0-156.8512 70.02624-156.8512 156.42112 0 86.37952 70.22592 156.41088 156.8512 156.41088 86.62016 0 156.8512-70.03136 156.8512-156.41088 0-86.38976-70.23104-156.42112-156.8512-156.42112z m367.6416-372.58752l-0.10752 6.49216v-6.20032h-40.43776c22.32832 0 40.43776 18.048 40.43776 40.34048 0 22.272-18.10944 40.33024-40.43776 40.33024h-262.92224c-22.33344 0-40.43264-18.05824-40.43264-40.33024 0-22.29248 18.0992-40.34048 40.43264-40.34048h221.59872c-0.02048-0.0512-0.02048-0.11776-0.02048-0.16896l81.88928-0.12288z"  horiz-adv-x="1024" />

    
    <glyph glyph-name="yaoqinghaoyou" unicode="&#59074;" d="M896.9472 129.12128s-94.86336 80.70144-85.01248 135.33184l-14.00832 0.95744h4.98176c0.09216 2.92864 0.44032 5.79584 0.44032 8.7552v224c0 155.8784-125.39904 282.25024-280.09472 282.25024S243.1488 654.03904 243.1488 498.16064v-224c0-2.95936 0.34816-5.82656 0.44032-8.7552h0.8192c-0.77312-23.10144-11.07968-78.04416-84.224-133.79584 0 0-25.86624-49.664 20.94592-54.62528h245.1712l77.6192-89.40032h49.28512l85.01248 90.2656h235.32032s34.50368 27.68384 23.40864 51.27168z m-644.35712 18.35008s75.1616 61.1072 69.00224 114.50368c0 0-2.88256 1.4848-6.96832 3.4304h12.79488a218.368 218.368 0 0 0-9.18016 62.58176V479.24736c0 119.74144 96.3072 216.78592 215.1168 216.78592 118.81472 0 206.35136-97.0496 206.35136-216.78592v-151.26016c0-21.76512-2.97472-42.76224-8.42752-62.58176h9.03168c5.08416-18.65728 28.70272-98.24768 66.70848-117.93408H252.59008z"  horiz-adv-x="1024" />

    
    <glyph glyph-name="suanlizhuanhuan" unicode="&#59076;" d="M552.95 286.845H455.516V422.187c-17.397 62.46-73.0845 3.4875-73.0845 3.4875v-187.398c3.492-45.135 62.6355-34.722 62.6355-34.722l-132.2235-114.516-132.2235 121.464c100.89-10.44 80.0325 24.282 80.0325 24.282v305.37c6.9525 118.017 104.382 166.608 104.382 166.608v20.79c0 59.004-48.735 41.643-48.735 41.643C194.525 699.783 187.5725 557.5245 187.5725 557.5245v-270.6795H90.143c-27.846-3.465-17.433-52.056-17.433-52.056l222.7365-235.9935h52.191l219.2085 242.9415c31.347 38.151-13.896 45.108-13.896 45.108z m407.115 246.402L737.369 769.2h-52.2l-219.24-242.9055c-31.3065-38.151 13.932-45.135 13.932-45.135h97.4385v-135.3105c17.3925-62.4645 73.071-3.492 73.071-3.492V529.7505c-3.4875 45.099-62.631 34.722-62.631 34.722l132.2235 114.5205L852.2 557.5245c-100.899 10.4085-80.0415-24.282-80.0415-24.282v-305.415c-6.9525-117.981-104.3775-166.572-104.3775-166.572v-20.8215c0-59.004 48.726-41.6475 48.726-41.6475 121.788 69.4215 128.7 211.7115 128.7 211.7115V481.155h97.47c27.873 3.492 17.388 52.092 17.388 52.092z"  horiz-adv-x="1024" />

    
    <glyph glyph-name="lianjiesuanli2" unicode="&#59077;" d="M129.6512 332.71680000000003l54.96 54.9504 73.3008-73.2768-36.6624-36.6624c-40.4592-40.4736-40.4592-106.08 0-146.544l36.6624-36.6672c40.4784-40.464 106.08-40.464 146.5536 0l183.216 183.2112a103.6704 103.6704 0 0 1 0 146.5824l-36.6384 36.6384a103.368 103.368 0 0 1-20.9088 15.7488l75.8928 75.8736 73.2816-73.2816a181.3872 181.3872 0 0 0 0-256.5216l-219.864-219.84a181.3824 181.3824 0 0 0-256.5168 0l-73.2768 73.272a181.392 181.392 0 0 0 0 256.5168z m0 0M899.144 442.632l-54.9504-54.96-73.3056 73.2864 36.6672 36.6576c40.464 40.4736 40.464 106.0752 0 146.5536l-36.6672 36.6624c-40.4688 40.464-106.0752 40.464-146.544 0l-183.216-183.216a103.6464 103.6464 0 0 1 0-146.5824l36.6336-36.6384a102.648 102.648 0 0 1 20.9136-15.7488l-75.8928-75.8736-73.2768 73.2816a181.3824 181.3824 0 0 0 0 256.5216l219.8544 219.8496a181.3824 181.3824 0 0 0 256.5216 0l73.272-73.2768a181.3824 181.3824 0 0 0 53.1312-128.2608 181.4208 181.4208 0 0 0-53.1408-128.256z m0 0"  horiz-adv-x="1024" />

    
    <glyph glyph-name="wodeshoucang" unicode="&#59078;" d="M745.088 740.2496c-89.99936 0-166.08256-57.27744-195.58912-137.18528l-0.4608-0.9728h-27.7504C492.32384 642.72896 462.4384 668.672 435.68128 685.51168c-37.12 33.664-85.8368 54.73792-139.83232 54.73792-115.54304 0-209.2032-93.88544-209.2032-209.67936 0-44.60544 14.12096-85.76512 37.79072-119.74656 102.06208-185.33376 377.4208-412.33408 377.4208-412.33408h36.08064c338.048 278.25152 390.71232 408.00768 398.45888 447.7952 11.35104 25.82528 17.87904 54.24128 17.87904 84.28544 0.00512 115.79392-93.65504 209.67936-209.18784 209.67936z"  horiz-adv-x="1024" />

    
    <glyph glyph-name="zhuanhuanmingxi" unicode="&#59079;" d="M661.74878475 535.46666668h-45.42464v-60.08832H404.34590475V535.46666668h-45.43488c-16.72704 0-30.27968-13.45536-30.27968-30.04928V204.97066668000002c0-16.5888 13.55264-30.04416 30.27968-30.04416h302.83264c16.72704 0 30.2848 13.45536 30.2848 30.04416V505.41738668c0.00512 16.59904-13.55776 30.04928-30.27968 30.04928z m-45.42464-300.45184H404.34590475c-8.36608 0-15.14496 6.72256-15.14496 15.0272 0 8.2944 6.77888 15.0272 15.14496 15.0272h211.97824c8.36096 0 15.13984-6.72768 15.13984-15.0272s-6.784-15.0272-15.13984-15.0272z m0 75.11552H404.34590475c-8.36608 0-15.14496 6.72256-15.14496 15.0272 0 8.2944 6.77888 15.0272 15.14496 15.0272h211.97824c8.36096 0 15.13984-6.72768 15.13984-15.0272s-6.784-15.0272-15.13984-15.0272z m0 75.11552H404.34590475c-8.36608 0-15.14496 6.72256-15.14496 15.01696 0 8.29952 6.77888 15.0272 15.14496 15.0272h211.97824c8.36096 0 15.13984-6.72768 15.13984-15.0272 0-8.2944-6.784-15.01696-15.13984-15.01696zM586.03934475 565.52106668h-33.64864c0 16.59392-18.82624 30.03904-42.05568 30.03904-23.22944 0-42.0608-13.44512-42.0608-30.03904h-33.64864v-60.09856h151.41888V565.52106668zM514.74846475 809.16138668c-236.59008 0-428.37504-189.78816-428.37504-423.9104 0-234.12736 191.78496-423.91552 428.37504-423.91552 236.57984 0 428.37504 189.78816 428.37504 423.91552 0 234.11712-191.7952 423.9104-428.37504 423.9104zM722.30814475 204.97066668000002c0-33.18272-27.11552-60.08832-60.55936-60.08832H358.91102475c-33.43872 0-60.56448 26.9056-60.56448 60.08832V505.41738668c0 33.19808 27.12064 60.09856 60.56448 60.09856h45.43488v30.03904h40.77568c13.11744 17.88416 37.25824 30.04928 65.20832 30.04928 27.94496 0 52.08576-12.16512 65.20832-30.04928h40.78592v-30.03904h45.42464c33.44384 0 60.55936-26.90048 60.55936-60.09856V204.97066668000002z"  horiz-adv-x="1024" />

    
    <glyph glyph-name="wodeduiyuan2" unicode="&#59080;" d="M622.7712 808.18688c-135.29088 0-242.59584-102.64576-242.59584-233.27744 0-88.64256 51.31776-167.9616 130.6368-205.28128-158.62784-46.64832-275.27168-186.62912-275.27168-354.58048 0-13.99808 9.33376-23.33184 23.33184-23.33184 13.99296 0 23.32672 9.32864 23.32672 23.33184 0 181.95968 153.96864 326.5792 340.57728 326.5792h9.33888c130.63168 4.66944 237.94176 107.31008 237.94176 233.28256-4.67456 130.63168-111.9744 233.27744-247.28576 233.27744z m0-419.89632c-107.29984 0-195.93728 83.98336-195.93728 186.61888 0 102.64576 88.63744 186.624 195.93728 186.624 107.32032 0 195.95776-83.97824 195.95776-186.624 0-102.63552-88.63744-186.61888-195.95776-186.61888z m275.2768-111.96928c-9.33888 9.32864-23.33184 9.32864-32.67072 0-9.3184-9.32864-9.3184-23.33184 0-32.66048 65.32096-60.66176 102.64064-144.61952 102.64064-233.28256 0-13.98784 9.32864-23.3216 23.34208-23.3216 13.98784 0 23.3216 13.98784 23.3216 27.99104 0 97.98144-41.98912 191.29344-116.6336 261.2736zM375.50592 383.62624000000005c0 13.99808-9.33376 23.32672-23.32672 23.32672-83.97824-4.6592-153.96352 65.32096-153.96352 153.96352s69.98528 153.9584 153.96352 153.9584c13.99296 0 23.32672 9.32864 23.32672 23.33184 0 13.99296-9.33376 23.33184-23.32672 23.33184-107.31008 0-200.62208-93.312-200.62208-200.62208 0-74.6496 41.99424-139.96032 97.97632-172.62592-121.30304-41.98912-214.61504-163.3024-214.61504-303.2576 0-13.98784 9.33376-23.3216 23.32672-23.3216 13.99808 0 23.32672 9.32864 23.32672 23.3216 0 149.2992 121.30816 275.27168 270.60736 275.27168 13.99296-0.00512 23.32672 9.32352 23.32672 23.3216z m0 0"  horiz-adv-x="1024" />

    
    <glyph glyph-name="zhuanzhang" unicode="&#59081;" d="M571.268 271.54499999999996c-12.11-9.08587-30.2721-13.6265-54.4916-13.6265-24.2148 0-44.9386 4.03499-62.0607 12.1146-17.1703 8.04109-25.7316 24.2148-25.7316 48.4343H368.442c0-36.3197 13.1017-64.0927 39.353-83.2471 26.2033-19.2024 63.5727-28.76 112.012-28.76 38.3131 0 70.1019 8.56586 95.3614 25.7316 25.2114 17.127 37.8411 41.8569 37.8411 74.1705 0 26.1984-9.08587 47.9142-27.2482 65.0893-18.1575 17.127-53.4948 29.7568-105.955 37.8411-32.3088 4.01572-53.4996 10.0828-63.5727 18.1575-10.1211 8.04109-15.1384 19.1638-15.1384 33.3006 0 12.1146 5.53245 22.7029 16.6504 31.7887 11.0697 9.08587 29.752 13.6265 56.0033 13.6265 20.1556 0 36.8061-3.54385 49.9511-10.5978 13.1065-7.10215 19.6789-19.6839 19.6789-37.8411h60.5441c0 30.2721-11.6329 54.4867-34.8126 72.6537-23.2229 18.1621-55.0114 27.2482-95.3614 27.2482-44.4138 0-78.2344-9.60109-101.414-28.76-23.2276-19.2024-34.8126-40.8699-34.8126-65.0846 0-28.2882 8.56108-50.9911 25.7316-68.1132 17.1224-17.1703 48.911-28.76 95.3558-34.8126 40.3499-6.05728 65.5612-14.137 75.6872-24.2148 10.0732-10.1308 15.1384-20.1893 15.1384-30.2721 0-14.1466-6.05728-25.7411-18.1671-34.8271ZM104.83 491.001c-0.274456-1.00633-0.370757-2.06082-0.621136-3.06716h159.482a26.3382 26.3382 0 1 1 0 52.6763H178.697C237.863 665.138 364.579 751.312 511.625 751.312c185.706 0 338.914-137.43 364.535-316.048h53.2253c-25.9724 207.815-202.908 368.724-417.759 368.724-158.756 0-296.874-87.8743-368.729-217.552 0 0-47.7361-86.9537-46.6575-88.2587 2.35455-2.96605 5.17614-5.44097 8.58999-7.17437ZM929.829 262.79999999999995a25.64 25.64 0 0 1-2.81678 4.19386c-2.36419 2.98049 4.50204 5.43615 1.09782 7.17437h-9.68779c0.264826 0.996718 0.356312 2.07046 0.616321 3.06716h-140.112a26.3382 26.3382 0 0 1 0-52.6763h65.4602c-59.2247-124.459-185.765-210.695-332.766-210.695-185.706 0-338.92 137.425-364.535 316.053H93.864c25.9672-207.815 202.907-368.724 417.759-368.724 158.756 0 296.871 87.8641 368.724 217.542l42.9885 72.1675c0 3.17792 8.93658 6.11988 7.89182 8.90778a24.937 24.937 0 0 1-1.39636 2.99012Z"  horiz-adv-x="1024" />

    
    <glyph glyph-name="xiaoxi2" unicode="&#59084;" d="M309.276 513.9259999999999c-36.4304 0-56.4993-22.1106-56.4993-62.1282 0-40.0223 20.069-62.1282 56.4993-62.1282s56.4993 22.1106 56.4993 62.1282-20.069 62.1282-56.4993 62.1282Zm189.99 0c-36.416 0-56.4993-22.1106-56.4993-62.1282 0-40.0223 20.0787-62.1282 56.4993-62.1282 36.4304 0 56.4993 22.1106 56.4993 62.1282s-20.069 62.1282-56.4993 62.1282Zm430.856-233.389V639.7819999999999c0 140.627-160.712 132.351-160.712 132.351H215.295c-135.879 0-125.335-147.225-125.335-147.225l-1.1267-443.877c39.9357-130.904 213.512-203.156 213.512-203.156-24.2966 106.782 54.9056 172.643 54.9056 172.643h440.71c134.325-6.611 132.167 130.02 132.167 130.02Zm-47.269 0s-9.42296-81.4846-82.385-81.4846H336.421s-72.2494-32.2847-77.3678-148.367c0 0-129.905 77.618-126.746 174.891l-1.17968 393.53s-3.2068 95.673 87.051 107.12c0 0 416.916-1.32896 504.157 0 87.2439 1.31932 154.9-0.683732 160.528-95.901v-349.792Zm-193.598 233.389c-36.416 0-56.4993-22.1106-56.4993-62.1282 0-40.0223 20.0834-62.1282 56.4993-62.1282 36.4256 0 56.4993 22.1106 56.4993 62.1282s-20.0739 62.1282-56.4993 62.1282Z"  horiz-adv-x="1024" />

    
    <glyph glyph-name="zhanghujilu" unicode="&#59085;" d="M645.623 834H207.038c-48.926 0-87.422-40.194-87.422-87.422v-725.156c0-48.936 40.194-87.422 87.422-87.422h609.88c48.937 0 87.422 40.194 87.422 87.422V573.624z m24.458-138.056l103.157-103.107h-99.62a3.778 3.778 0 0 0-3.487 3.487z m148.586-681.516h-611.63a7.516 7.516 0 0 0-6.983 7.034V746.619a7.516 7.516 0 0 0 6.984 7.034h380.967v-157.33a85.764 85.764 0 0 1 85.613-85.612H825.65v-489.29c-1.729-5.245-3.487-7.033-6.984-7.033zM712.063 474.014H313.642c-22.72 0-40.194-17.474-40.194-40.194s17.464-40.194 40.194-40.194h398.421c22.73 0 40.194 17.475 40.194 40.194s-17.464 40.194-40.194 40.194z m0-216.685H313.642c-22.72 0-40.194-17.474-40.194-40.194s17.464-40.193 40.194-40.193h398.421c22.73 0 40.194 17.474 40.194 40.193s-17.464 40.194-40.194 40.194z"  horiz-adv-x="1024" />

    
    <glyph glyph-name="chongru" unicode="&#59086;" d="M784.477 434.819c-125.127 0-226.594-105.692-226.594-236.07s101.467-236.055 226.594-236.055c125.146 0 226.585 105.676 226.585 236.055s-101.438 236.07-226.585 236.07Zm15.7316-349.741v58.842H641.783v109.674h158.426v58.8325l143.751-113.677-143.751-113.672ZM876.06 282.30499999999995h54.9596M294.717 675.8820000000001a27.4799 24.1018 0 1 1 54.9596 0 27.4799 24.1018 0 1 1-54.9596 0ZM184.822 675.8820000000001a27.475 24.1018 0 1 1 54.9499 0 27.475 24.1018 0 1 1-54.9499 0ZM404.622 675.8820000000001a27.4702 24.101799999999997 0 1 1 54.9404 0 27.4702 24.101799999999997 0 1 1-54.9404 0ZM634.004 73.21500000000003H184.827c-30.3532 0-54.9548 21.5937-54.9548 48.2037V555.348h769.31v-273.049h54.9452V699.984c0 53.2538-49.2032 96.4313-109.9 96.4313H184.827c-60.6967 0-109.905-43.1777-109.905-96.4313v-578.566c0-53.249 49.2079-96.4031 109.905-96.4031h449.181v48.1989ZM129.873 699.984c0 26.6293 24.6016 48.2182 54.9548 48.2182h659.4c30.3436 0 54.9596-21.5889 54.9596-48.2182v-96.4219H129.873V699.984Z"  horiz-adv-x="1024" />

    
    <glyph glyph-name="tichu" unicode="&#59087;" d="M24.659 198.71699999999998c0-130.243 101.332-235.809 226.349-235.809 124.997 0 226.358 105.566 226.358 235.809S376.006 434.541 251.008 434.541c-125.016 0-226.349-105.581-226.349-235.824Zm67.032 0l143.602 113.558v-58.7712H393.555v-109.56H235.293v-58.7808L91.693 198.71699999999998ZM159.521 282.18499999999994H104.618M685.352 675.352a27.4512 24.0768 0 1 1 54.9024 0 27.4512 24.0768 0 1 1-54.9024 0ZM795.141 675.352a27.4464 24.0768 0 1 1 54.8928 0 27.4464 24.0768 0 1 1-54.8928 0ZM575.575 675.352a27.4464 24.0768 0 1 1 54.8928 0 27.4464 24.0768 0 1 1-54.8928 0ZM401.325 25.16300000000001h448.709c60.6336 0 109.791 43.1088 109.791 96.3028V699.429c0 53.1984-49.1568 96.3309-109.791 96.3309H191.326c-60.6336 0-109.786-43.1328-109.786-96.3309v-417.249h54.888V554.944h768.504v-433.478c0-26.5824-24.5712-48.1536-54.8976-48.1536H401.325v-48.1488ZM904.932 603.108H136.423V699.429c0 26.6016 24.5856 48.168 54.9024 48.168H850.034c30.3216 0 54.8976-21.5664 54.8976-48.168v-96.3216Z"  horiz-adv-x="1024" />

    
    <glyph glyph-name="wodeweituo" unicode="&#59088;" d="M979.90144 243.43552c-11.76576 11.76064-200.22272 176.7168-211.98848 188.57472-11.75552 11.76576-23.51616 11.76576-23.51616 11.76576H444.00128s-47.13984-5.88288-47.13984-47.14496c0-29.50144 17.63328-53.02272 47.13984-58.89536 29.39904-5.87776 82.42176-17.64352 129.56672-23.5264 17.6384 0 0-11.76064 0-11.76064l-58.91072-41.2672H314.43456s-82.42176 58.9056-141.32736 106.05056c-88.30464 64.77824-123.68896 0-123.68896 0s-11.75552-23.5264 0-35.3792c47.14496-41.27744 217.86624-194.45248 229.62688-206.21312 11.76064-11.76576 29.50656-5.88288 29.50656-5.88288h347.43296c29.39904 0 47.13984-17.63328 47.13984-17.63328s53.02784-47.14496 70.66624-58.9056c29.40416-23.52128 41.27232 0 41.27232 0l158.96064 170.82368c5.87776-0.00512 17.6384 17.6384 5.87776 29.39392zM142.44864 519.4752h422.92224a39.16288 39.16288 0 1 1 0 78.32576H142.44864a39.16288 39.16288 0 1 1 0-78.32576z m0 137.44128h422.92224a39.15776 39.15776 0 0 1 39.16288 39.16288 39.15776 39.15776 0 0 1-39.16288 39.16288H142.44864a39.16288 39.16288 0 1 1 0-78.32576z m0 0"  horiz-adv-x="1024" />

    
    <glyph glyph-name="jiaoyilishi2" unicode="&#59090;" d="M518.372 882.105c-272.691 0-490.843-218.152-490.843-490.843 0-86.353 22.724-163.615 59.083-231.787 4.546-18.18 22.724-36.358 40.903-36.358 22.724 0 45.449 18.18 45.449 45.449v4.546c0 9.089-4.546 18.18-9.089 27.269-31.814 54.538-49.994 122.71-49.994 190.884 0 222.698 181.793 399.947 399.947 399.947 222.698 0 399.947-181.793 399.947-399.947 0-222.698-181.793-399.947-399.947-399.947-86.353 0-168.159 27.269-236.333 77.262-9.089 9.089-18.18 13.634-31.814 13.634-22.724 0-45.449-18.18-45.449-45.449v-4.546c0-18.18 13.634-36.358 31.814-40.903 81.807-54.538 177.249-90.897 281.779-90.897 272.691 0 490.843 218.152 490.843 490.843 4.546 272.691-213.607 490.843-486.297 490.843z m0-177.248c-22.724 0-45.449-18.18-45.449-45.449v-268.145c0-4.546 0-13.634 4.546-18.18 4.546-18.18 22.724-27.269 40.903-27.269h268.145c22.724 0 45.449 18.18 45.449 45.449 0 22.724-18.18 45.449-45.449 45.449H563.819V659.41c0 22.724-22.724 45.449-45.449 45.449z"  horiz-adv-x="1024" />

    
    <glyph glyph-name="tixiandingdan" unicode="&#59037;" d="M123.54666664 519.3620000000001l1e-8 134.92a151.996 151.996 0 0 0 151.995 151.593L888.02366665 805.875A151.996 151.996 0 0 0 1040.01966665 654.281l0-164.29a10.045 10.045 0 0 0-10.286-10.286l-47.25 0a10.045 10.045 0 0 0-10.28600001 10.286l1e-8 140.746c0 71.95999999-35.076 106.955-107.236 106.955l-564.71 0c-72.16 0-107.277-34.996-107.277-106.955l0-105.87L375.50566665 524.8670000100001a75.054 75.054 0 0 0 75.094-74.85400001L450.59966665 341.01c0-41.304-33.67-74.893-75.094-74.893l-182.531 0L192.97466665 137.26300000000003c0-72.00000001 35.116-106.995 107.277-106.995L865.48366665 30.26800000000003c72.2 0 107.277 34.995 107.277 106.995L972.76066665 278.01a10.045 10.045 0 0 0 10.285 10.245l47.25 0a10.045 10.045 0 0 0 10.246-10.245l0-164.33A151.955 151.955 0 0 0 888.54566665-37.875l-612.442 0a151.996 151.996 0 0 0-152.035 151.554L124.06866664 271.74c-27.884 11.732-46.607 38.732-47.77299999 68.987l0 109.285c0 30.25499999 18.965 58.058 47.25 69.349z m10.12400001-158.625c0-22.139 18.32199999-40.139 40.782-40.139l177.99-1e-8c22.5 0 40.822 18 40.822 40.13900001l0 64.607c0 22.138-18.321 40.138-40.821 40.138l-177.991 0c-22.46000001 0-40.782-18.24-40.782-40.66l0-64.085z m196.233 74.852c11.933 0 23.825-4.7 31.7-12.616a42.429 42.429 0 0 0 13.18-31.018c0-12.937-4.5-23.665-13.38-31.821-7.795-7.755-19.366-12.415-30.938-12.415-11.41 0-23.062 4.74-32.022 12.937-8.398 7.755-13.42 19.447-13.42 31.30000001 0 11.008 5.063 22.901 13.219 31.05699999a46.286 46.286 0 0 0 31.66 12.576zM1037.80966665 418.192a10.487 10.487 0 0 0 2.17-8.277l0.04-54.12a10.045 10.045 0 0 0-10.286-10.246l-191.933 0 9.442-9.723a11.25 11.25 0 0 0 3.254-7.433l0-82.165c0-4.018-2.21-7.634-5.785-9.442l-1.808-0.804-2.692 0c-4.22 0-6.63 2.41-7.554 3.335l-135.683 136.929a10.848 10.848 0 0 0 0.04 14.986L832.65766665 528.121a11.571 11.571 0 0 0 7.554 3.334l3.053-0.11999999 1.406-0.68300001a10.446 10.446 0 0 0 5.826-9.442l0-82.165c0-4.179-2.37-6.55-3.254-7.433l-9.442-9.724L1029.73366665 421.888a10.326 10.326 0 0 0 8.076-3.696z"  horiz-adv-x="1024" />

    
    <glyph glyph-name="chongrudingdan" unicode="&#59092;" d="M1007.12 248.63800000000003v-134.92a151.996 151.996 0 0 0-151.995-151.593H242.643A151.996 151.996 0 0 0 90.647 113.71900000000005v164.29a10.045 10.045 0 0 0 10.286 10.286h47.25a10.045 10.045 0 0 0 10.286-10.286v-140.746c0-71.96 35.076-106.955 107.236-106.955h564.71c72.16 0 107.277 34.996 107.277 106.955v105.87H755.161a75.054 75.054 0 0 0-75.094 74.854V426.99c0 41.304 33.67 74.893 75.094 74.893h182.531V630.7370000000001c0 72-35.116 106.995-107.277 106.995H265.183c-72.2 0-107.277-34.995-107.277-106.995V489.99a10.045 10.045 0 0 0-10.285-10.245h-47.25a10.045 10.045 0 0 0-10.246 10.245v164.33A151.955 151.955 0 0 0 242.121 805.875h612.442a151.996 151.996 0 0 0 152.035-151.554V496.26c27.884-11.732 46.607-38.732 47.773-68.987v-109.285c0-30.255-18.965-58.058-47.25-69.349z m-10.124 158.625c0 22.139-18.322 40.139-40.782 40.139h-177.99c-22.5 0-40.822-18-40.822-40.139v-64.607c0-22.138 18.321-40.138 40.821-40.138h177.991c22.46 0 40.782 18.24 40.782 40.66v64.085z m-196.233-74.852c-11.933 0-23.825 4.7-31.7 12.616a42.429 42.429 0 0 0-13.18 31.018c0 12.937 4.5 23.665 13.38 31.821 7.795 7.755 19.366 12.415 30.938 12.415 11.41 0 23.062-4.74 32.022-12.937 8.398-7.755 13.42-19.447 13.42-31.3 0-11.008-5.063-22.901-13.219-31.057a46.286 46.286 0 0 0-31.66-12.576zM92.857 349.808a10.487 10.487 0 0 0-2.17 8.277l-0.04 54.12a10.045 10.045 0 0 0 10.286 10.246h191.933l-9.442 9.723a11.25 11.25 0 0 0-3.254 7.433v82.165c0 4.018 2.21 7.634 5.785 9.442l1.808 0.804h2.692c4.22 0 6.63-2.41 7.554-3.335l135.683-136.929a10.848 10.848 0 0 0-0.04-14.986L298.009 239.87900000000002a11.571 11.571 0 0 0-7.554-3.334l-3.053 0.12-1.406 0.683a10.446 10.446 0 0 0-5.826 9.442v82.165c0 4.179 2.37 6.55 3.254 7.433l9.442 9.724H100.933a10.326 10.326 0 0 0-8.076 3.696z"  horiz-adv-x="1024" />

    
    <glyph glyph-name="zhifuzhanghu2" unicode="&#59093;" d="M785.088 139.51999999999998c-4.928 1.024-106.368 23.232-182.592 32.512l-0.256 21.44c67.072 52.032 139.968 143.168 139.968 293.696 0 94.848-36.672 207.936-211.264 207.936-140.032 0-211.2-70.208-211.2-208.64 0-141.248 31.744-230.016 105.6-292.416v-21.632c-76.928-8.64-179.52-32-184.512-33.152a34.688 34.688 0 0 1-26.368-41.6c3.84-16 37.568-26.752 53.568-26.752a34.56 34.56 0 0 1 8.064 0.896c1.344 0.256 116.16 30.848 186.112 34.112a34.88 34.88 0 0 1 33.472 34.624v70.144a34.688 34.688 0 0 1-13.824 27.52c-65.088 48.896-91.648 120.896-91.648 248.32 0 100.288 39.488 139.392 140.736 139.392 100.032 0 140.8-40.192 140.8-138.688 0-132.288-68.16-208.064-125.312-248.32a34.432 34.432 0 0 1-14.72-28.48l0.768-70.144a34.88 34.88 0 0 1 32.768-34.112c70.528-4.864 203.264-33.984 204.48-34.24a34.88 34.88 0 0 1 42.048 26.112 34.816 34.816 0 0 1-26.688 41.472z m82.048 695.04H158.528c-58.24 0-107.136-35.456-107.136-83.84v-62.848c0-1.408 0.896-2.304 1.152-3.648-0.192-0.768-0.832-1.536-0.832-2.24-0.256 8.064-0.32-476.992-0.32-580.864v-62.848c0-57.024 53.504-104.768 111.68-104.768h704.064c58.176 0 105.536 46.656 105.536 103.872V730.624c0 57.28-47.36 103.936-105.536 103.936z m19.84-796.288c0-19.136-1.984-20.992-21.44-20.992H158.528c-19.392 0-21.44 2.24-21.44 20.992V750.72c0 7.424 1.024 0 21.44 0H844.16c24.32 1.344 35.328-5.248 42.88-20.928v-691.52z"  horiz-adv-x="1024" />

    
    <glyph glyph-name="zhanghuzijin" unicode="&#59094;" d="M657.47968 790.34368c-121.088 0-325.95968-23.95648-325.95968-114.08384v-180.09088c-10.75712 0-21.67296 0.81408-32.59392 0.81408-110.17216 0-220.84096-23.63392-251.96544-75.61728a32.62976 32.62976 0 0 1-8.80128-22.17984v-309.65248c0.02048-2.3552 0.29184-4.7104 0.8192-7.00416 3.91168-30.64832 33.89952-54.44096 89.63584-70.41024a649.33888 649.33888 0 0 1 170.3168-20.37248 648.13056 648.13056 0 0 1 169.98912 20.20352h3.42016l23.1424-3.74784a900.9664 900.9664 0 0 1 153.04192-16.29696c71.71072 0 289.9456 6.02624 325.95968 76.92288a32.5632 32.5632 0 0 1 8.96 20.70016V676.2598399999999c-0.00512 90.12736-204.87168 114.08384-325.9648 114.08384z m260.77184-482.09408c-20.20352-14.50496-114.08384-39.43424-268.2624-39.43424-30.81216 0-60.96384 1.13152-89.80992 3.08736V385.98656a1600.5632 1600.5632 0 0 1 90.13248-3.08736c53.13024 0 186.44992 3.2512 267.93984 33.56672v-108.21632z m-814.8992 9.45664c50.19648-21.84192 123.04896-32.59904 195.57888-32.59904 72.52992 0 145.37728 10.2656 195.57376 32.59904v-76.93312c-13.69088-13.35296-81.48992-36.66432-195.57376-36.66432-114.08896-0.49152-181.88288 22.98368-195.57888 36.34688v77.25056z m554.12736 407.44448c154.67008 0 241.04448-32.59904 258.6624-48.896-17.6128-16.30208-103.99232-48.896-258.6624-48.896-154.66496 0-241.0496 32.59392-258.65216 48.896 17.60256 16.30208 103.9872 48.896 258.65216 48.896z m-260.76672-121.9072c70.40512-31.1296 182.86592-41.07264 260.76672-41.07264 77.91616 0 190.36672 9.94304 260.77184 41.07264v-115.55328c-20.20352-14.6688-114.08384-39.6032-268.42624-39.6032h-0.81408c-44.97408-0.1024-89.92256 2.29376-134.62016 7.168a339.712 339.712 0 0 1-117.67296 35.0464V603.24352zM298.92608 431.79008c114.89792 0 180.09088-26.7264 193.9456-40.75008-13.85472-14.01344-79.04256-40.74496-193.9456-40.74496s-179.28192 26.73152-193.95072 40.74496c14.67392 14.02368 79.86688 40.75008 193.95072 40.75008z m0-374.85568c-114.08896 0-181.88288 23.47008-195.57888 36.82816v73.67168a252.30336 252.30336 0 0 1 25.26208-8.63744 648.9088 648.9088 0 0 1 170.3168-20.37248 647.92576 647.92576 0 0 1 169.98912 20.21376 255.0272 255.0272 0 0 1 25.58464 8.63232v-73.67168c-13.68576-13.35808-81.4848-36.66432-195.57376-36.66432z m351.06304 0a679.3984 679.3984 0 0 0-95.83616 7.6544c2.97472 5.632 4.85376 11.776 5.53984 18.08896a42.20416 42.20416 0 0 1 0 4.40832v119.45984c29.00992-1.95584 58.99776-2.93376 89.79456-2.93376 53.94944 0 187.26912 3.25632 268.75904 33.57184v-134.94272c-0.7168-1.74592-1.31584-3.54304-1.792-5.376-18.41152-14.50496-112.29184-39.93088-266.46528-39.93088z m0 0"  horiz-adv-x="1024" />

    
    </font>
</defs>
</svg>
